/* XPM */
static char *_c7e18cc8dce40f2ac779bde313f23a7bW5GMSezpLpXjwih[] = {
/* columns rows colors chars-per-pixel */
"85 85 185 2 ",
"   c None",
".  c #857457",
"X  c #877058",
"o  c #89725B",
"O  c #8F7861",
"+  c #927C64",
"@  c #947F69",
"#  c #62863F",
"$  c #668D41",
"%  c #6F8347",
"&  c #738B4E",
"*  c #689041",
"=  c #75994C",
"-  c #7E9457",
";  c #72A047",
":  c #74A249",
">  c #79A54E",
",  c #7DA751",
"<  c #858959",
"1  c #81A955",
"2  c #86AC59",
"3  c #8BAE5D",
"4  c #8EB05F",
"5  c #8D8C63",
"6  c #96816A",
"7  c #9A846D",
"8  c #918264",
"9  c #9A966F",
"0  c #9A8672",
"q  c #9E8973",
"w  c #9F8C79",
"e  c #9D9F74",
"r  c #9C9471",
"t  c #A28C75",
"y  c #A18E7B",
"u  c #A5917B",
"i  c #A9957D",
"p  c #A29076",
"a  c #9BAD6D",
"s  c #94A569",
"d  c #8FBE64",
"f  c #8EB160",
"g  c #94B464",
"h  c #90BB66",
"j  c #9AB769",
"k  c #94BC69",
"l  c #9DB96C",
"z  c #9EA075",
"x  c #9FAC72",
"c  c #A1BB6F",
"v  c #A1A377",
"b  c #A2AE75",
"n  c #A6A87A",
"m  c #A8AA7D",
"M  c #A4A679",
"N  c #A4BD72",
"B  c #A8BF76",
"V  c #A9BC7D",
"C  c #B0BF7E",
"Z  c #92C165",
"A  c #96C469",
"S  c #9BC66C",
"D  c #9EC86F",
"F  c #9FC870",
"G  c #A3C575",
"H  c #A9C077",
"J  c #A4CA74",
"K  c #ADC27A",
"L  c #ACCE7A",
"P  c #A7C678",
"I  c #B2C57E",
"U  c #AFD07D",
"Y  c #B1D07E",
"T  c #FCDF4F",
"R  c #F7DA57",
"E  c #FADD52",
"W  c #F2D75E",
"Q  c #F5D95A",
"!  c #FFE14A",
"~  c #FFE247",
"^  c #DDC67D",
"/  c #E7CE6F",
"(  c #E9CF6C",
")  c #EDD366",
"_  c #EAD16A",
"`  c #F1D661",
"'  c #E2CA76",
"]  c #E0C879",
"[  c #A59381",
"{  c #AC9780",
"}  c #AD9982",
"|  c #AD9C8B",
" . c #B29D86",
".. c #B39F88",
"X. c #AEAF80",
"o. c #B5A18A",
"O. c #B9A58E",
"+. c #AEBF82",
"@. c #AEB380",
"#. c #B2B583",
"$. c #B9BC8A",
"%. c #B4BC88",
"&. c #B3A394",
"*. c #BEAA93",
"=. c #B6A798",
"-. c #B7A89A",
";. c #BAAC9E",
":. c #BBA790",
">. c #BBAEA1",
",. c #BFB2A5",
"<. c #D3BD8C",
"1. c #C1AE96",
"2. c #C3AF98",
"3. c #C1BE95",
"4. c #CDB994",
"5. c #C7B49D",
"6. c #C8B59E",
"7. c #CABA9E",
"8. c #CBB793",
"9. c #D0BB91",
"0. c #C4B7AA",
"q. c #AFC581",
"w. c #B4C682",
"e. c #B4C882",
"r. c #BBCB86",
"t. c #B7C688",
"y. c #BCC58D",
"u. c #BDCB8A",
"i. c #BAC686",
"p. c #B5D382",
"a. c #BAD586",
"s. c #BDD689",
"d. c #BFD88A",
"f. c #C1CD8C",
"g. c #D9C284",
"h. c #D6C089",
"j. c #D7C186",
"k. c #C5D18E",
"l. c #C3D98D",
"z. c #C3CB93",
"x. c #C9C29B",
"c. c #CCCF9A",
"v. c #CCCF97",
"b. c #C7D191",
"n. c #CCD494",
"m. c #C6DB90",
"M. c #CCDE95",
"N. c #CFDF98",
"B. c #CDD098",
"V. c #D0DB97",
"C. c #D1D69A",
"Z. c #D5DA9C",
"A. c #D8DC9F",
"S. c #D0D697",
"D. c #D3E19A",
"F. c #D8E49F",
"G. c #CFC4A0",
"H. c #D1C5A2",
"J. c #D2CEA1",
"K. c #DAD5A6",
"L. c #D4DBA3",
"P. c #DBDCA1",
"I. c #DDDDA9",
"U. c #D5D5A0",
"Y. c #D5C7B6",
"T. c #E0DEA9",
"R. c #DCE6A2",
"E. c #DEE0AE",
"W. c #E1E7A6",
"Q. c #E1E8A6",
"!. c #E2E2AC",
"~. c #E5EAAA",
"^. c #E9ECAD",
"/. c #E1E3B2",
"(. c #EAEDB4",
"). c #E4E6BA",
"_. c #ECEEBA",
"`. c #EEF0BF",
"'. c #E4DCC9",
"]. c #EBEBCA",
"[. c #EAECC1",
"{. c #EFF1C4",
"}. c #F1F3CB",
"|. c #F0F2C5",
" X c #F3F5D3",
/* pixels */
"                                                                                                                                                                          ",
"                                                                                                                                                                          ",
"                                                                                                                                                                          ",
"                                                                                                                                                                          ",
"                                                                                              }.`. X                                                                      ",
"                                                                               X}.}.|._.`.^.^.^.^.^.^.^.{.                                                                ",
"                                                                  _.^.^.~.^.^.^.^.^.^.^.^.Q.D.Q.a.U l.F.^.^.`.}.                                                          ",
"                                                              _.^.^.D.l.R.R.^.^.^.R.R.m.M.d.d.l.J l.a.D J d.D.Q.^.`.}.                                                    ",
"                                                          `.(.^.W.Q.L Y ^.^.^.N.R.Y N.L N.U D.Y F.^.^.a.Z Z A J Y D.Q.^.(.|.                                              ",
"                                                        |.^.~.Q.p.M.U F.~.M.D.L N.U D.p.F.p.D.Y ^.^.^.R.Y D A Z Z Z D Y l.F.^.(.{. X                                      ",
"                                              ).      (.^.^.l.M.U D.p.Q.m.p.m.a.M.l.m.d.m.a.l.J Q.^.^.^.^.Q.D.d.L S A J Y L L m.~._.                                      ",
"                                          /.I.Z.Z.`.(.^.D.D.Y M.p.F.U D.l.l.l.M.l.l.s.l.p.M.L Z p.~.^.^.^.^.^.^.Q.F.M.Q.^.Q.L A F. X                                      ",
"                                      ).!.A.n.n.a.W.~.R.s.l.a.D.a.M.L l.s.D.a.m.p.m.Y N.Y D.U J a.^.^.^.^.^.^.^.^.^.^.^.^.^.l.S R.                                        ",
"                                    ).P.S.n.I n.^.^.D.s.l.l.l.l.s.l.Y M.p.m.Y M.Y D.p.M.s.l.m.p.D.^.^.^.^.Q.^.^.^.^.^.^.^.Q.J Y {.                                        ",
"                                  !.A.Z.I g K A.~.N.m.p.M.s.m.a.l.m.a.D.Y N.Y D.p.N.d.l.M.p.N.Y Q.^.^.R.U J l.^.^.^.^.^.l.J A M.                                          ",
"                                P.P.k.j H k.I P F.U V.p.F.L D.a.l.l.a.D.Y D.p.N.s.l.M.a.N.p.l.s.^.^.^.Y Z Z D R.^.^.^.N.S Z D ~.                                          ",
"                            ].I.Z.I I r.K j I f.F.L F.Y D.L D.Y m.l.a.D.Y D.a.M.m.d.N.l.l.m.p.N.^.^.Q.J d d F R.^.^.^.s.l.D a.{.                                          ",
"                            I.A.S.I c l I f.c l V.a.D.a.M.Y M.a.M.l.d.D.Y M.l.l.N.d.m.N.a.N.U ~.^.^.^.l.S S m.(.^.^.R.s.D.S D.                                            ",
"                          ].Z.c 2 c r.k.c g I r.n.m.Y m.l.l.m.a.M.l.l.D.s.M.m.l.N.m.m.N.p.d.s.^.^.^.^.~.R.R.^.^.^.^.m.M.p.L (.                                            ",
"                          /.r.3 r.f.j 3 I r.B c r.D.Y D.Y M.l.l.M.m.m.D.d.M.M.l.M.N.m.l.A D D.^.^.^.^.^.^.^.^.^.^.~.s.D.F l. X                                            ",
"                          A.j r.T.P.k.> 1 j B r.I F.Y V.p.N.l.l.M.m.N.D.l.m.N.m.m.N.N.U d J ~.^.W.F.R.R.^.(.^.^.^.R.s.m.S R.                                              ",
"                        ).k.1 k.P.P.S.3 3 f.I c c V.l.M.s.M.d.M.M.m.D.D.M.m.D.M.N.D.D.D A p.M.t.w.w.w.e.a.V.^.^.^.d.M.L U {.                                              ",
"                        I.N : H P.A.P.S.I g c I I a.D.a.m.M.l.M.M.M.F.N.M.m.N.D.N.D.l.A Z G t.z.B.c.c.c.z.w.u.^.W.J J S M.                                                ",
"                      ].S.2 : I P.P.A.P.A.Z.I j j r.F.a.D.l.m.N.M.M.F.D.N.M.D.D.D.F.p.Z k y.c.c.c.c.c.c.c.c.t.a.N.A Z J ~.                                                ",
"                      !.I : 2 S.P.A.P.P.P.P.P.Z.r.j k.l.D.l.M.N.M.N.Q.F.D.M.D.F.R.D.J Z q.c.c.c.c.c.c.c.c.c.c.q.G A Z s.}.                                                ",
"                      Z.g ; H A.P.P.P.Z.P.P.P.P.P.Z.P.M.M.l.N.N.M.D.~.F.D.D.F.F.R.D.A h z.c.c.c.c.c.c.c.c.c.c.y.d Z S D.                                                  ",
"                    ).f.> , b.P.P.A.B 4 G Z.P.P.P.P.Z.D.l.N.N.N.D.D.Q.F.F.F.F.F.R.d.Z l c.c.c.c.c.c.c.c.c.c.c.y.k Z L _.                                                  ",
"                    I.N = l A.A.P.I : = ; ^ P.P.P.u.a n.l.D.N.D.F.F.R.F.F.F.R.R.R.U Z h z.c.c.c.c.c.c.c.c.c.c.t.h Z d.                                                    ",
"                  ].n.1 > u.P.P.P.H # 1 : Y P.P.f.a n $.D.D.N.D.F.F.Q.F.F.R.Q.~.R.S Z G t.c.c.c.c.c.c.c.c.c.c.V d A R.                                                    ",
"                  /.I > j Z.P.P.P.k.2 1 c Z.P.S.a X.M m A.M.N.F.F.R.~.R.Q.Q.~.^.M.A A N.t.u.c.c.c.c.c.c.c.c.t.h Z p._.                                                    ",
"                  Z.j I Z.A.P.A.A.P.S.k.V.P.P.I b #.z z B.D.F.F.R.R.~.Q.Q.~.^.^.s.a.L ~.R.q.y.c.c.c.c.c.z.q.h Z A m.                                                      ",
"                [.u.c P.P.P.P.P.P.A.P.P.P.P.V.a #.m z e $.F.F.F.R.~.^.~.~.^.^.~.p.M.r.E.I.L.%.$.x.x.G.y.%.y.q.V +.J.'.                                                    ",
"                E.l N P.P.Z.n.A.P.A.P.A.P.P.f.a #.z z e m A.R.R.Q.~.^.^.~.!.K.J.8.7.3.6.6.6.6.5.5.5.5.5.5.0.5.5.5.5.5.2.                                                  ",
"                Z.f , r.r.g 3 B f.Z.P.P.P.P.i.b X.z z z z c.R.W.~.^.!.K.G.7.6.6.5.5.6.6.6.6.5.5.5.5.5.5.5.5.5.5.5.5.5.1.|                                                 ",
"              ).A.I 2 , : ; g u.K c I n.P.P.w.b m z z z e $.W.R.P.H.7.5.5.5.6.5.5.5.5.5.5.5.5.6.5.5.5.5.5.5.5.5.5.5.5.2.@                                                 ",
"                  ).L.f.B 3 , 3 K f.w.N B b.u.s v z z z e n C.G.7.5.5.5.5.6.5.5.6.5.5.5.5.5.5.5.6.5.5.5.6.5.5.5.5.5.5.2.6 y                                               ",
"                          I.f.N 1 1 c I 1 , g - e e e z p e 1.5.5.5.5.6.5.6.5.5.5.5.6.5.5.5.5.5.5.5.5.5.5.5.5.5.5.5.5.5.7 X                                               ",
"                                C.w.g , : : ; $ - e z r 8 i 8.5.5.5.5.5.5.5.5.5.5.5.5.5.5.5.5.5.5.5.5.5.5.6.5.6.5.5.5.6.O.O y                                             ",
"                                    I.u.j , ; * # & 5 O t 5.5.5.6.5.5.5.5.5.5.6.5.5.6.5.5.5.5.5.5.5.6.5.5.5.5.5.5.5.6.5.6.{ o                                             ",
"                                          b.N = $ % . 6 2.6.5.5.5.5.5.5.6.5.5.5.5.5.5.5.5.5.5.5.5.5.5.5.5.5.5.5.5.5.5.5.5.6.i t                                           ",
"                                              #.< X + O.6.6.5.5.5.5.5.5.5.5.5.5.5.5.5.6.5.5.5.5.5.5.5.5.5.5.5.5.5.5.6.6.6.6.:.O                                           ",
"                                              p o O  .6.5.5.5.5.5.6.5.5.5.5.5.6.5.5.5.5.5.5.5.5.5.6.5.5.5.5.5.5.5.5.6.6.6.2.t X -.                                        ",
"                                            | o o i 5.5.5.5.5.5.5.6.5.6.5.5.5.5.5.5.5.5.5.5.5.5.5.5.6.5.5.6.5.6.5.2.*...i 7 o o y                                         ",
"                                            o o t 5.5.5.5.5.5.6.6.6.6.2.5.6.5.5.5.5.6.5.5.5.5.5.6.5.5.2.2.O. .i 7 @ + o X X o o 0                                         ",
"                                          | o 7 2.5.5.5.5.5.5.6.5.5.5.5.5.5.5.5.5.6.5.5.6.5.1. .i t 7 6 + O o X X X X o X o o X 0                                         ",
"                                          + 7 1.5.5.5.5.5.5.5.6.5.5.5.5.5.5.6.5.2.1.O. .u 7 + o + + 6 7 7 7 7 q t i i i { i i @ o [                                       ",
"                                          o + O.0.5.5.5.5.5.6.6.5.0.5.5.5.2. .t 7 @ 7 7 o X o o 6 i 1.2.6.6.5.5.6.0.6.6.6.6.6.O.o o                                       ",
"                                          =.o + ..5.5.5.5.6.8.6.6.2.1. .t @ 7 i O.1.2.5.i O X + t + + 7 i O.2.5.5.5.5.5.5.5.5.5.q o |                                     ",
"                                            w o O  .5.5.6.6.6.5...t + + t ..2.6.5.5.5.5.5.i o + 2.1.i + o O 6 u 1.2.5.5.5.5.5.6. .o 7                                     ",
"                                              O o O  .2.2.2.o.7 o O o ..2.6.6.5.5.5.5.5.5.5.i o i 8.6.2.i 6 O u 2.6.6.5.5.5.5.5.1.7 o                                     ",
"                                              | o o o @ @ 6 o O  .i o O.0.5.6.5.5.5.5.5.5.8.2.o. .5.6.6.0.2.*.5.6.6.6.5.5.5.6.5.6.} o                                     ",
"                                                  -.t o o X + ..5.t o ..5.5.6.6.5.5.5.5.5.0.5.5.] ( ) <.5.5.5.5.8.6.5.5.5.5.5.5.6.1.6 &.                                  ",
"                                                    ,.o o + o.0.2.@ X ..6.6.5.6.5.5.5.5.5.5.5.0.( T ~ ) 5.5.5.5.5.5.5.6.5.5.5.5.5.5.t q                                   ",
"                                                    0 X + ..6.6.1.O o ..6.6.6.2.5.5.6.5.6.5.4.g.Q T T R <.8.5.5.5.5.5.5.5.6.5.5.5.0. .o                                   ",
"                                                    o + ..6.5.6...o o ..6.6.5.5.5.5.5.5.6.^ Q T T T ~ ~ T ) <.5.5.5.5.5.5.5.5.5.5.5.:.O                                   ",
"                                                  &.o u 6.5.5.6.i X i 2.5.5.5.6.5.5.6.6.g.E ~ ! T Q W R T ~ E g.6.5.5.5.5.6.5.5.5.5.2.+ }                                 ",
"                                                  t O ..6.5.6.6.t 7 2.5.5.5.5.5.5.5.5.6.) ~ ! ! ] 8.5.4.] E ~ R <.5.5.5.5.5.6.5.5.5.2.7 +                                 ",
"                                                  + @ 2.5.5.5.2.t 1.6.5.5.5.6.5.5.5.5.6._ ~ ! ! Q ^ <.8.0.] W E ` 8.5.5.5.5.5.5.5.5.5.t o                                 ",
"                                                  o t 5.5.6.5.8.1.5.5.5.5.5.5.5.5.5.5.5.g.E ~ ~ ! ! E Q ( <.9.9.<.4.6.5.6.5.5.5.5.5.5.i o q                               ",
"                                                  o  .6.5.5.6.5.5.5.5.6.5.5.5.5.5.5.5.5.6.h.) R ! ! ~ ~ ~ ~ Q ] 9.6.6.6.5.5.5.5.5.5.0.*.@ X                               ",
"                                                &.+ *.6.5.5.5.5.5.5.5.5.6.5.5.5.5.5.5.5.5.5.6.4.h.] _ Q E ! ~ ~ R g.5.5.5.5.5.5.5.5.5.6.*.7 6                             ",
"                                                [ q 5.6.5.5.5.5.5.5.5.6.5.5.5.5.5.5.6.6.<.g.^ ] g.8.0.8.<.g.` T ~ T <.6.5.5.6.5.5.5.6.5.6.2.q 0.                          ",
"                                                0 { 6.5.5.6.5.5.5.6.5.5.5.5.5.5.5.5.5.6.) ~ ! ! T / <.8.8.6.<.R T ~ ` 5.5.5.5.5.5.5.5.5.5.0.5.o.                          ",
"                                                0 :.6.5.5.5.5.5.5.5.5.5.5.5.5.6.5.5.5.5.g.E ! ! ~ ! E R W ` Q T ~ ~ R 8.5.5.5.5.5.6.5.5.5.8.5.5.Y.                        ",
"                                                7 O.5.5.5.5.5.5.5.5.5.6.5.5.5.5.5.5.5.5.5.<.( W E T T ~ ~ ~ T T T E ' 6.6.6.5.5.5.6.5.5.5.5.5.6.5.Y.                      ",
"                                                7 7 1.5.5.5.5.5.5.5.5.5.5.5.5.5.5.6.5.5.5.6.6.8.9.<.<.Q ~ ~ E ] h.9.O.1.5.5.5.5.5.5.5.5.5.5.5.5.5.O.0.                    ",
"                                                | X t 5.5.5.5.6.5.5.5.5.5.5.6.5.5.5.5.5.5.5.5.5.6.6.2.] E E R <.*.t t 2.5.5.6.5.5.5.5.6.5.5.5.2.i O [                     ",
"                                                  o o } 6.5.5.5.6.5.5.5.5.5.5.5.5.6.5.5.5.5.5.5.6.6.0.8.<.<.8.o.+ + O.6.5.5.5.5.5.5.5.5.5.0.*.7 o o &.                    ",
"                                                  @ X + *.6.5.5.5.6.5.5.5.5.5.5.5.5.5.5.5.5.5.5.5.5.6.6.5.:.q o + o.6.6.5.5.5.5.5.5.5.5.5.2.7 o X o                       ",
"                                                  &.o o t 5.5.5.5.5.5.5.5.5.5.5.5.5.5.5.5.5.5.5.5.6.6.2.{ + X O o.6.5.5.5.5.5.5.5.5.6.5.5.u o o o =.                      ",
"                                                    + o o ..0.5.5.5.8.5.5.5.5.5.5.0.5.5.5.5.5.5.2.1...7 o X O  .5.6.5.5.5.6.6.5.2.2.1.o.i O o o 0                         ",
"                                                    -.o o @ 1.8.5.5.6.5.5.0.6.5.5.2.1...i i 7 7 + + o X o + ..2.5.5.5.6.1...i q 6 + O o o o o O                           ",
"                                                      q o o q :.5.6.6.0.2.1. .i q @ + o o X X X X X o O t *.6.5.5.5.5...6 o o X o o o o o o q                             ",
"                                                        @ o o O u .. .t 6 O o X X o X o o o o o o O t O.6.6.6.6.5.*.t o X o o o o o q :.                                  ",
"                                                          [ O X o o o o X o o o o o o o o o o o O 7 y i i {  .O.i + o o o o o 0 >.                                        ",
"                                                              >.w 6 @ 6 7 7 }           >.[ 6 O X o o X o o o o X o o @ w =.                                              ",
"                                                                                                    >.>.;.0.                                                              ",
"                                                                                                                                                                          ",
"                                                                                                                                                                          ",
"                                                                                                                                                                          ",
"                                                                                                                                                                          ",
"                                                                                                                                                                          ",
"                                                                                                                                                                          ",
"                                                                                                                                                                          ",
"                                                                                                                                                                          "
};
