/* XPM */
static char *eb8f13d8e7c145eef3dc79d9717f192dwhAZ8x7K73MwFJ8G[] = {
/* columns rows colors chars-per-pixel */
"85 85 215 2 ",
"   c #7DAF0E",
".  c #7AAC14",
"X  c #75AA1B",
"o  c #7BAD1D",
"O  c #77A61C",
"+  c #79B016",
"@  c #7CB21B",
"#  c #7FBD1E",
"$  c #7CAD24",
"%  c #7DAD2B",
"&  c #7BA623",
"*  c #7DB224",
"=  c #7FBA27",
"-  c #7EB32B",
";  c #7FB92B",
":  c #76B125",
">  c #7EAE32",
",  c #7FAF39",
"<  c #7EB333",
"1  c #7EB33A",
"2  c #7DBA31",
"3  c #7EB444",
"4  c #81AE1D",
"5  c #82B21D",
"6  c #85B517",
"7  c #82AD24",
"8  c #81AE2B",
"9  c #82B425",
"0  c #83B926",
"q  c #83B42D",
"w  c #89B42C",
"e  c #84B92C",
"r  c #89BA2D",
"t  c #88BB22",
"y  c #82AD32",
"u  c #83AE3B",
"i  c #88AF38",
"p  c #8BAF35",
"a  c #83B531",
"s  c #8AB534",
"d  c #85B933",
"f  c #89BA33",
"g  c #84B43A",
"h  c #8AB53B",
"j  c #85B93A",
"k  c #8CBB3C",
"l  c #95B734",
"z  c #93BA35",
"x  c #90B63F",
"c  c #93BB3D",
"v  c #8DC138",
"b  c #83B542",
"n  c #8FB745",
"m  c #8EB941",
"M  c #8BB549",
"N  c #87BA4A",
"B  c #91B644",
"V  c #93BA44",
"C  c #9ABB44",
"Z  c #95BB4D",
"A  c #9ABC4E",
"S  c #96BB54",
"D  c #9BBB52",
"F  c #9EBD5A",
"G  c #94B955",
"H  c #97B861",
"J  c #A1BF67",
"K  c #9AC04D",
"L  c #99C253",
"P  c #9FCF55",
"I  c #9CC25D",
"U  c #97C158",
"Y  c #A7C855",
"T  c #A4C25C",
"R  c #A3C056",
"E  c #9FC067",
"W  c #9FC369",
"Q  c #A2C364",
"!  c #A8C666",
"~  c #A6CF65",
"^  c #A4C36A",
"/  c #A9C46D",
"(  c #A6CB6B",
")  c #ACCC6E",
"_  c #A6C473",
"`  c #ABCA75",
"'  c #A7C378",
"]  c #AAC77B",
"[  c #B2CE73",
"{  c #B2CB7C",
"}  c #AFD372",
"|  c #B6D578",
" . c #B6D777",
".. c #ADC780",
"X. c #AFCD83",
"o. c #B3CE84",
"O. c #B6CC8D",
"+. c #B6D580",
"@. c #B8D586",
"#. c #B5D38A",
"$. c #BAD38B",
"%. c #BADA8B",
"&. c #BBD593",
"*. c #BBDA94",
"=. c #BDD59D",
"-. c #BECDA2",
";. c #BED0A6",
":. c #BFD8A1",
">. c #C0D497",
",. c #C4D69D",
"<. c #C3DC9B",
"1. c #C4DB99",
"2. c #C9E297",
"3. c #D0E69E",
"4. c #C4D7A3",
"5. c #C5DAA4",
"6. c #C7DEAA",
"7. c #C9DEAB",
"8. c #C7DEB0",
"9. c #CCDDB3",
"0. c #CCE0A4",
"q. c #CCE4AA",
"w. c #C6E2A7",
"e. c #D3E7A8",
"r. c #D0E9AF",
"t. c #CDE4B3",
"y. c #CEE4BD",
"u. c #D3E1B5",
"i. c #D7E9B7",
"p. c #D2E2BD",
"a. c #D5EBBD",
"s. c #D9ECBF",
"d. c #DCF1BD",
"f. c #CEDDC0",
"g. c #D3DCC7",
"h. c #D4E6C1",
"j. c #D8E2C7",
"k. c #D5EAC2",
"l. c #DDE7CE",
"z. c #DDEDCC",
"x. c #D7E9C6",
"c. c #DDF1C5",
"v. c #DFF0CC",
"b. c #DDE7D7",
"n. c #DDEAD3",
"m. c #DFEED9",
"M. c #E2EDCD",
"N. c #E7F8CB",
"B. c #E3F4C8",
"V. c #E0EFD2",
"C. c #E3ECDD",
"Z. c #EBEFDD",
"A. c #E8ECD5",
"S. c #E2F1D4",
"D. c #EBF6D7",
"F. c #EDFFD7",
"G. c #EAF5DB",
"H. c #E9F8DB",
"J. c #F0FFD5",
"K. c #DFE9E0",
"L. c #E6E6E6",
"P. c #EAE5E7",
"I. c #E5ECE3",
"U. c #EBECE5",
"Y. c #E9E6ED",
"T. c #E5ECEB",
"R. c #EDEDED",
"E. c #F1EEE6",
"W. c #F1EDEC",
"Q. c #E7F3E7",
"!. c #ECF3E5",
"~. c #EAFAE5",
"^. c #EDF2EC",
"/. c #EDFAEA",
"(. c #F1F4E5",
"). c #F2FAE3",
"_. c #F3F3ED",
"`. c #F4FAEC",
"'. c #FAFBED",
"]. c #F9F2E0",
"[. c #E9E6F3",
"{. c #EDEDF3",
"}. c #EEEDFA",
"|. c #E7E8F2",
" X c #F1EEF3",
".X c #F2EEFB",
"XX c #F9ECF3",
"oX c #EEF2F4",
"OX c #EEFAF0",
"+X c #E9F1F6",
"@X c #F4F4F4",
"#X c #FAF5F4",
"$X c #F5FAF4",
"%X c #FCFCF5",
"&X c #F5F4FB",
"*X c #FAF6FC",
"=X c #F6FBFC",
"-X c #F8F8F8",
";X c #F9F9F9",
":X c gray98",
">X c #FBFBFB",
",X c #FBF9FA",
"<X c #F8FFFA",
"1X c #FEFFFA",
"2X c #F9F9FF",
"3X c #FEFAFE",
"4X c #FAFEFF",
"5X c gray99",
"6X c #FDFDFD",
"7X c #FFFDFF",
"8X c #FEFEFE",
"9X c white",
"0X c #FEFEFF",
"qX c #FDFEFF",
"wX c #FCFCFC",
/* pixels */
"R.9X9X@XR.$X9X5XR.W.>X9X@XY.@X9X@XR.@X9X9X@XR.@X9X9XR.R.9X9XR.R.>X9X-XR.@X9X9X@XR.@X9X>XY._.9X9XR.R.@X9X5X{.@X9X5X@X_.>X9X@X{.R.9X9X_.R.>X9X-XR.@X9X9X^.R.>X9X-XY.@X9X5X X",
"@X>X9XR.R.-X9X@XR.-X9X>X@XR.@X9X>XR.R.9X9XR.R.>X9X@XR.@X9X9X@XR.@X>X>XR.{.1X9XR.R.>X9X@XR.@X>X9X^.@X>X5X@XR.@X9X9XW.R.-X9X-X@X_.9X>X@XR.@X9X-XR.{.9X9X{.R.>X9X@XR.@X9X5X@X",
">X@X@X@X>X@X@X@X-X>X@X@X>X>X@X@X@X>X>X@X@X$X>X@X@X@X>X>X@X@X-X-X@X@X@X>X@X@X@X@X-X-XR.@X>X>X@X@X-X>X@X@X@X>X>X@X@X-X-X@X@X@X-X>X@X@X>X1X@X_.-X-X-X@X@X-X-X@X@X@X$X-X@X@X>X",
"9XR.Y.9X9X@XY.@X9X>XR.R.>X9X@XY.@X9X9XR.Y.9X9X@XL.@X9X9X_.Y.-X9X@XR.@X9X9XR.R.9X9X@XY.@X9X>XR.R.9X5X@XR.@X9X5XR.Y.9X9X@XY.@X>X9XY.R.1X9X@XY.@X9X9XY.R.9X9X_.R.>X9X-XR.R.9X",
"-X@X@X@X>X@X@X@X@X@X>X@X@X@X$X@X-X@X@X@X@X@X@X>X@X-X@X@X>X>X@X$X@X@X@X$X@X@X@X>X@X@X>X-X@X@X-X@X@X@X-X-X@X@X@X-X@X>X@X@X@X-X-X@X@X@X@X@X>X-X@X$X@X$X@X@X$X>X-X@X@X@X>X@X@X",
"R.9X9X^.Y.-X9X>XR.@X9X9XR.R.>X9X>XR.R.9X9X@XR.>X9X>XR.R.9X9X@XP.>X9X>XY.@X9X9XR.R.@X9X>XL.@X9X9XR. X$X9X-XR.R.9X9X^.Y.>X9X$XR. X9X9X@XY.-X9X-XY._.9X9X XY.>X9X@XY.@X9X9XR.",
"@X>X>X@X_.@X>X>X@X@X@X>X@X@X@X>X@X@X@X@X>X@X@X@X>X@X@X@X@X@X-XoX@X9X@X@X@X>X>X@X@X@X>X@X@X@X5X>X@X@X@X>X-X@X@X>X>X@X@X-X9X@X@X@X>X>X@X@X@X-X@X@X@X>X>X@X@X@X-X>X_.@X>X>X@X",
"9XR.Y.1X9X@XR.@X9X5X@XR.5X9X@XR.@X9X9X@XR.>X9X@XY._.9X9XR.R.9X9X@XR.@X9X>XU.Y.9X9X@XR.@X9X>XR.R.9X9X@XR.@X9X5XR.Y.9X9X_.Y.@X9X9XR.R.>X9X@XR.@X9X>X{.R.1X9X@XR.@X9X>XR.R.>X",
"1X XR.1X9X@XR.@X9X>X@XR.-X9X@X X@X9X>X{._.>X9X@X{.@X1X2X XW.%X5X#XY.`.>X5X_.@X-X9X(.R.'.5X3X.XU.<X>X@X{.-X-X1X X^.>X9X@XR.@X5X9XR.@X>X9X@XR.>X9X>XR. X>X5X@X@X@X9X-XR. X>X",
"@X9X9X@XR.>X9X>XR.R.5X9X@XR.-X9X$XR.@X5X9X XR.-X9X@X(.@X9X1XR.|.-X5X9XU.@XZ.) Z D 4.<X2XU._.%X9X^.L.9X5X%XR.R.9X9X_.R.>X9X-X XR.9X5X XR.>X9X@XR.@X9X9X@XR.>X9X-X^.@X9X9X{.",
"R.9X9XoXY.-X9X>XR.R.9X9X@XY.@X9X>XR.R.9X9X XR.-X9X#XR. X9X9X@XoX>X`.2XE.g.s * < q   A +X}.^.%X9X X.X9X>X@XW._.-X9XR.R.-X9X>XR.R.9X1X_.Y.-X9X@XR.^.9X5XR.R.>X9X-XY.oX9X9X@X",
">X@XR.>X1X@XW.@X>X9X@XR.1X>X@X@X@X>X>X@X^.>X>X@XW.-X-X-X@X^.#X#X@X@X'.%XZ X j a g e $ ( 4X-X(._.%X`.oXoX<X>X5X_.@X>X>X@X@X@X>X>X@XoX>X>X@XR.-X>X>X X@X>X5X@X_.-X-X>X@XR.>X",
"9XR.R.9X9X@XR.@X9X9XoXL.>X9X@XY.@X9X9XR.R.9X9X@XR.@X1X%XU.R.5X5X&XP.-Xf.@ 2 e w a 1 * 7 z.9X{.{.k.` V x @.-X5XR.R.9X9X@XY.@X9X9XR.R.9X9X@XY.@X9X>XR.R.9X9X@XY.@X1X9XR.R.9X",
"@X@X>X@X@X-X>X@X@X@X-X-X@X@X-X$X-X@X@X-X-X@X@X-X#X@X2X>X2X2X5X5X%X-XC.x * e h 8 d q 9 9 C /.Q.{ * 9 - o w 2.-X#X$X@X@X@X@X$X@X@X@X>X@X@X-X>X@X@X@X-X>X@X@X@X$X@X@X@X-X-X@X",
"R.9X9XR.R.-X9X>XR.R.9X9X_.Y.-X9X>XR.{.9X9XW.R.-X9X9XT.j.a.t.:.$.&.X.0 * k a y h a g 0 j q a f $ a j b k $ J -X5X9XW.Y.-X9X@X@XR.9X9X_.R.-X9X@XR.@X9X9X^.{.>X9X-XR.@X5X9XR.",
"@X>X>X@X@X@X-X>X@X@X@X>X@X@X@X1X@X@X@X>X>X@X@X-X&X%X,.s . $ $ - 5 $ < e 0 i q = s q < g a - g e g 9 - e $ =.>X@X>X@X@X>X9X@X@X@X9X@X@X@X@X>X>X X@X-X>X@X@X@X-X-X_.@X>X-X-X",
"9XR.U.>X9X@XY.@X9X9XR.Y.1X9X@XR.@X9X>XR.R.>X9X@XW.G.F = - e d a a q a a a a a a a a a a a a e a q w q < n `.9XL.R.9X9X@XY.@X9X>XR.R.9X9X@XY.@X9X9XR.R.9X9X_.R.@X9X>XY.oX9X",
">X@X{.>X9X@X_.@X1X-X@X@X>X>X@XW.@X>X>XR.@X>X9X@XW.2X] o k g 9 g a a a a a a q a a q a a a a a a e - f $ q.%X-XoXR.1X1X@X_.>X9X-XR.@X>X@X@X_.@X9X@X@X@X>X9X{.R.-X9X-X_.@X@X",
"R.9X9X@XR.-X9X>XR.@X>X9X@X{.-X9X-XR.@X9X9X@X{.@X5X5Xp.7 j < < e a a a e a q a a a e q a q a a a a g * [ >X^.{.9X9X@XR.-X9X@XoX_.9X9X@XR.>X9X@X{.@X9X1X{.R.>X9X-XR._.9X>XW.",
"@X9X9XR.Y.@X9X>XY.@X9X9X^.R.-X9X>XR.R.9X9X@XR.$X9X@X@X{ o j j 9 q a a a a a q a a a a a a a a q < - a ).9X|.oX%X9XR.Y.-X9X@XR.@X9X5XR.R.>X9X@XR.@X9X9XR.R.>X9X@XL.@X9X9X@X",
"9X^.R.>X9X@X@X@X1X>X@X@X>X>X@X^.@X9X9X_.R.>X>X@X{.@X5X_.s q a q a a a q a a q a a a q a q a a a g @ $.&X#X>X4XR.R.>X1X@X@X@X5X9X@X@X>X1X@X_.@X9X@X@X@X>X9X@X_.@X>X>XR.@X5X",
"5XR.Y.9X9X@XR.^.9X1XR.R.>X9X@XY.@X9X9XR.R.9X9X@XU.-X5X9X4.. g q a a a a a a a a a a a a a a a a q m G. X.X9X>X{.R.9X9X@XY.$X9X>XR.R.>X9X@XY.-X9X1XY.R.9X9X{.R.-X9X9XY.R.9X",
"@X>X>X@X@X@X-X-X@X@X@X-X@X@X-X-X@X@X$X-X>X@X@X@X-X2X@X(.2XR 9 g a a a a a a a a a a a a a a a q $ &.-X-X2X_._.>X>X@X@X@X>X@X@XW.-X@X@X$X@X@X@X@X-X$X@X@X@X@X-X>X@X@X@X>X-X",
"W.9X9X_.Y.@X9X5XY.R.9X9X^.Y.-X9X>XY.Y.9X9XR.Y.>X9X>XC.{.5XM.6 1 a a a e e a a a q a a q a q a q q j.5X5X-XR.R.>X9XR.Y.>X9X@XR.oX9X9XR.Y.>X9X-XY.@X9X9XW.R.>X9X@XR.R.9X1XR.",
"@X-X-X@X@X@X>X@X@X@X@X>X@X@X@X>X@X@X@X>X-X$X@X-X#X2XoX).*X5Xo.$ j j q e s < a ; s q a g g a q - S OX_.%X-X(.2X&X>X@X@X@X-X@X@X-X-X-X@X@X>X@X@X-X@X>X-X@X@X>X>X-X@X@X>X@X@X",
"9X{.R.9X9X@XR.@X9X9XR.R.>X9X@XR.@X9X1XR.Y.>X9X@XR._.9X9XP. XF.M * - < q e g g q a q q - - s e * ` >X_.Y.&X%X5X_.R.9X9X@XY.$X9X9XR.R.5X9X@XR.$X9X>XR.R.9X9X XR.$X9X9XR.R.9X",
"5XoX_.>X9X@XR.@X1X9X@X{.>X9X@XR.@X9X>XR.@X>X9X@X_.oX>X>XW. X1X4.* - d e @ 9 s h g < e q q a g % / >X@X X2X%X@X(.R.9X9X@X{.-X5X>X@X^.$X1X@X X@X>X>X^.R.9X1X@XR.@X>X5XW.R.9X",
"W.>X9X@XR.>X9X>XY.R.9X9XR.R.>X9X>XR.R.9X9X^.Y.-X%X2X|.^.9X5XR._.S q q g b j 9 y w q q a d e = - O._.-X5X3XR.{.9X9XR.R.>X9X@XR._.9X9X XY.9X9X@XR.@X9X9XR.Y.>X9X-XR.oX9X9X@X",
"oX9X9X@XR.@X9X>XR._.9X9X@XY.>X9X>XY.R.9X9XR.R.>X1X>X{.^.>X9XW..Xc.D . @ g a * v q j g a 9 & > E l.&X-X9X$XR.&X9X9XR.Y.>X9X>XR.@X9X9X@XR.>X9X@XR.@X9X9XR.Y.>X9X-XR.R.9X9XR.",
"9XW.W.>X9X@XR.@X9X>X^.R.>X9X@XR.@X1X>X_.R.9X9X@X{.@X9X>X!._.5X-X>Xb.>.A q q $ . : * $ w z T ,.!.9X>X@XW._.>X>XR.@X1X9X@XR.@X>X>XR.@X>X>X@X@X@X>X>XR.R.9X9X@XR.@X9X>X@XR.>X",
"9XoXR.9X9X@XR.@X9X>XR.Y.>X9X@XR.@X9X9XY.R.9X9X@XR.@X9X>X_.L.>X9XZ.{.&X9XH.9.;.5.=.&.=.p.!.9X5X.X%X%X@XR.@X9X%XE.Y.9X9X@XR.@X9X9XR.R.1X9X@XY.>X9X1XY.R.9X9XR.R.@X9X9XR.R.9X",
"@X@X-X@X@X>X>X@X@X@X>X>X@X_.@X>X$X@X@X>X>X@X@X@X-X-X_.#X>X-X`.oX9X5X,X#X5X9X9X>X5X,X1X9X2X>XG.4.-.u.(.>X>X2X@X-X-X@X@X@X>X@X@X@X>X@X@X@X-X-X@X@X@X>X>X@X@X>X>X@X@X@X>X@X@X",
"R.9X9XR.Y.>X9X>XR.R.9X9X^.Y.-X9X'.Y.R.9X5X XR.-X9X-XU.U.9X5X-XC.t.#.W ^ *.a.z.n.C.C.S.u.#.I j $ * @ j ( 7.K.&X9X1XW.U.2X9X@XR.E.9X9X_.Y.>X9X>XY.^.9X9XR.R.>X9X-XY._.9X9XR.",
"-X-X$X@X@X-X@X@X@X@X@X$X@X@X-X-X2X-X@X>X#X`.-X.X-X-X,X3X2XD.&.G % @ + @ * - s h w s s 8 % q q q j g g 5 . w o.n.>X-X@X#X'.#X&X@X$X@X-X@X@X@X@X@X-X@X>X@X@X@X-X-X@X-X@X-X@X",
"9XR.Y.9X9X@XR.@X9X9XR.R.9X9X@XR.@X>X>XR.R.%X%X%XY..X9X!.$.s - g g e e a j g q * - < a a a s a q q q - a j g 9 9 ] n.1X#XR.@X>X>XY.R.>X9X@XL.@X9X>XY.R.9X9X_.R.-X9X>XY.R.9X",
"-X@X_.>X1X@XR.@X>X>X X@X-X>X@XR.^.9X-X}.2X$X-X#X&X>Xq.h . q a 9 q s s < a y 0 w j 2 - q e q q q h g e q < < q q q w %.^.&X@X9X$X@X@X-X1X@X@X@X>X-XR.@X>X5X@X@X@X>X>X^.@X9X",
"R.9X9XR.Y.$X9X>XY.@X5X5X@XR.@X9X>XU.-X5X5X@XR.9XD.F o d 1 ; e q a s f w q a a s a a 8 q q g g b 9 0 a < q q q s 0 - o K c.2XR.XX9X9X@XY.@X9X>XL.@X9X9XY.R.>X9X@XU.@X9X9XR.",
"@X9X9X@XW.-X9X-X^.@X>X9X@XR.>X9X-X XE.%X>X2X!.5.* s g q s h g q g q 9 9 q e a > s s g r e q q * q g e q q a a g g - j 9 8 O.@XXX9X>XR.R.9X9X@XR.@X1X>X@X_.-X9X-XR.oX9X>XR.",
">XR.R.>X9X@XR.@X9X>X@X@X>X>X@X_._.9X5XE.@XOX&.X e e w w s - < d a a g g a a g g q d q q q q s d g a , a s d a < % k a , f 7 Q ~.@X@X@X9X-XR.@X9X@XR.@X9X9X@XR.@X9X@X_.@X>X",
"9XR.R.>X9XoXR.@X9X9XR.P.>X9X@XY.oX1X2X.XD.! & j g g q - a e q q q q a a a s 0 9 - a a g g a q q q q q q q - - e 0 s a q t * 1 N L.R.9X9XR.R.@X9X9XR.R.9X9XoXR.@X9X5XY.@X9X",
"@X-X>X@X@X$X>X>X@XR.%X5X.X@X_.9X@X@X&X!.S @ j q q a a a e a a a 9 q g a e a a 9 g q a a g d 9 0 e a a q a a a a q q a a q a a a f a.>X@X-X>X@X(.@X>X9X@X@X@X>X-X@X@X-X>X@X",
"R.9X9X@XY.-X9X-XR.@X9X9X_.L.2X%X9X[.G.D w a q g a a a a a a a q e a g f % g a h 0 * s 0 - j a g a a a a q q a a a a a a a a a e y h h.}._.5X-XY.R.9X9X@XR.>X9X>XR. X1X9XoX",
"@X>X@X@X@X@X>X@X@X@X2X$X_.-X2XR.>X^.G . q 0 - g a a a a a a a a a h q 9 q j - % 1 i p.B.k @ < g a a a a a a a a q a a a a a a a 9 g a z.>X#X2X&X@X>X@X@X@X@X-X@X@X-X-X@X@X",
"9XR.Y.1X9X@XR.@X9X>XR.L.>X9X_..X!.! : j a w r < a q a a a q a a g q w w e - j r < 6 F.>XV = j @ a a a q a a a - a a a q a q a a s - g z I.W._.%X9XR.R.9X9X@XR.@X9X9XR.R.9X",
">X@X^.-X9X@X@X@X%X9X@X^.>X-X$X-X` X d j < y h 9 a a a q a q a a < 9 q s q e a $ > l Z.5XD $ g j a a q a a a a q q a a a a a a a y q 2 - C  X_.%X@X@X@X>X%X@X@X@X-X>X_.{.5X",
"R.9X9X XY.$X9X1XE.R.>X9XW.[.>X<.o k * < a q g e a e a a a a a q * s q e q d % Q a.<X1X%X@Xt.V @ a a a a a e a a a a a q a q a a q e - a 7 | 2X{.R.9X9XR.Y.5X9X@XY.R.9X9XR.",
"@X9X9X@XR.-X5X>X_.{.>X1XW.@Xk.a q q a w q g q a a a q a a a a a 0 s y d a % / '.1X1X>X9X'.%X`.K q q a e a a a a a a a a a e q a s q q < a 0 5..X@X9X9X@XR.5X9X-X_.oX9X9XW.",
"9XR.R.9X9X@XR.@X5X9X^.U.9X%XH = ; g s q q < a q a a a < e a a a g q g < = g J.5X#X9Xz.G.%X%X>XV.q < a a a a a a q a a a a a a a h q q g 2 * c !.>XR.R.>X9X@XR.-X9X>XR.R.9X",
"9XR.R.>X9X@XR.R.9X9XW.R.>X@.9 g a e a a a q a a a a a a a a a a g q 0 < 9 ( >X%X%Xq.$ q s.9X-X9XW $ e g q - a q q q a a a a a a a s - q j % g P 9XY.U.1X>X@XoX X9X>XR.R.>X",
" X>X>X@X X$X1X>X-XU.1X2XS.n % a a a a a a a q a a e a a a e a q q a < r $ &.9X%X9X! - % ` `.9X>X .g w - s q j q a a a q a q q a q d a - f g > a u.9X>X_.R.2X9X-X@X@X-X>X@X",
"R.9X9X^.Y.@X9X>X[.G.1X>X` 7 g q a a e a a q a a a a a q a a q a e a g e $ w.-X%X>XQ o q L d.f.v.~ q q q d q g a a a a a a e a a - j s - s d q % S >X9XU.W.2X9X>XY._.9X9X{.",
">X@X@X-X>X@X@X@X&X#X>XC.8 0 j e q < a a a a a a q a a a a a a a q g a < - +.9X1X%X3.o j > 5 5 o g % f q q a d q e a a a a a a a a q q q - q d d q q.>X-X5X@X@X@X$X@X-X-X@X",
"9XR.R.9X9X@XR.@X9X-X&X{ 5 - d q a a q a a a a a a a a a q a a a q s * j q V $X9X5X9X<.q 7 s a ; a y d q q g d - a a a q a a q a q - a j q q q d - A oX9X5X_.U.@X9X>XR.R.1X",
"@X@X@X@X@X@X@X@X-X>XT.s s - a a a a a a q a a e a a a a a a a q q g q q e < @.`.%X$X9X~.*.m @ 3 e g q q a q q a e a a a a a a a s a a a q d q - 2 6 h.9X&X_.@X&X@X>X@X@X>X",
"@X>X9X{.R.@X9X>XL.2X5.7 g d a a q a a a a a a a q a a a a a a a q g f $ a a > %.4X%X9X5X9X`._ 8 9 g g e j a - a a a a a a a a q a a a - a g a a g * [ _.[.>X>X>XY.@X>X>X X",
" X1X9X@X_.>X9X-X^.}.Y % d - q h a a a q a a a a a a a e a q a a q , 0 q e q g + V 9.'.1X%X9X'.} @ j g * s a e q a a a a q a a a q q q e g q a a - u l ^.R.>X9X$XR.@X5X5X@X",
"9X^.R.>X9X@XR._.9XF.g < e a a - a a e a a a q a a q a a a a a a < e 0 q g f q ; < . k q.>X9X>X`.h q a * e g q a a q a a a a a a a a a e a a a a - a q c.1XXXU.oX9X>X@XR.9X",
"9XR.R.>X9X@XR.@X>Xv.s - q s s d a a a a q a a a a a a a a a e a e < q s 8 $ 7 q q v < % e.>X%X9X( q j q q g q q a a q a a e a a q a a a a a a a e g $ 6.1X XR.$X9X@XR.{.@X",
"@X>X9X@X X@X>X@X&Xt.% q q q < e a q a q a a a a a a a q a q a a e g q q m i.c.n.} * 1 0 ^ >X%X>X*.% j a - j a q a q a a a a a q a a a a a a a q q j o O.$X-X#X4X@X@X>X-X@X",
"R.9X9X_.Y.-X9X>X@X4.$ d q g a q a a a a a a q a a e a a a a q a y j q 0 c 4X2X5Xk.9 a X ` >X>X9X&.o q 1 e a a q a a a a q a a a a a q a q a a a a a $ { _.#X1X&XU.@X9X9X@X",
">X@X X@X>X@X@X@X9X4.* a e d q q a q a a a q a a a q a a a q a a s h * > 9 H.9X%X$X^ & & 6.1X'.>X] 5 0 g d q < a a q a a a a q a a a a a a q a a < a * / $X@X#X&X-X@X@X@X>X",
"9XR.R.>X9X@XR._.1X4.q e q s s q a a a a a a a a a < q a a a a a 9 b e b q @.9X#X9X).0.i.'.>X9X<XN 5 9 s d q a a a a a a a a a a a a a q a a a a q j o ( >X@XI.-X9X>XR.W.1X",
"-X@X-X@X@X@X@X@X5X4.% - q a a - a a a a a a a q a e a a a a s q 9 g q f o q q.%X9X9X9X5X9X>X%X` - 9 < a q q e g a a a e a q a a a e a a a a a q q j * ( >X&X(.2X>X@X@X@X@X",
"{.9X9X@XR.$X9X>X@X4.- a a a f - e a a a q a a a a a a a q a q q q d < 0 g s w =._.9X%X1X5XA.` * e a g j 7 g 0 a q a a a a a < e a q < a a e a q s % * ( }.>X1X@XY.@X9X9X{.",
"@X>X9X@XW.>X9X@X#Xu.g = - d s < a a a s a q a s a a a a a e < a a a a q a a a q g | >XD.S a o a s a q a a a q a a a a a a a a a - e q a j g - < a < q =..X$X2X%XW.@X5X5X-X",
"9XR.R.5X9X@XR.@X9X/.G q 0 q u 0 q a e a a a - a a q q a a a a q q a a a q a q < - m <XH.i 0 e q q a a a a a a a a q a q a a a a k - - q q q f e g e 7 N.>X2XR.@X9X5XR.R.>X",
"9XR.R.5X9X@XR.@X9X>X] 7 h b q w a a a a a a a q a q a a a a a a a a a a a a a a s s d.q.s q - a a a a a a a a a a a q a e a a a > j d 9 w a g 9 k . ! '.%X.X_.&X9X5XR.R.>X",
"oX>X9X@XR.@X9X>X^. X%XC o b q q a a a - q a a a a a a a a q a a a a q a a a e a g q u y 8 g 0 g a a q a a a a q a a a a a a a q - d a u g 9 - N * s m.oX@X-X%X>X_. X5X9X@X",
"R.9X9X@XR.>X9X>XR.R.5XB.9 = < g q a a a q < a a a e a a a a a a - a a a a a q a < e q r w % e a a a a a q a a e a a a a a a a q q - g e 9 a d = > q.>X@X.X%X%X>XY._.9X9XR.",
">X@X@X@X>X@X@X@X2X_.W.>Xy.k @ a a a a s d e a q a a a q a e a a a q a q a a a a e 0 < < q e g a a a q a a a a a a a q a q a a a r q q 9 9 < - * ,.<X@X@X,X&X@X@X-X>X@X@X>X",
"9XR.R.5X9X@XY.@X9X9X XP.9X!.Q % j q q a j s - a a a a a q a q a a a q a q a a a 9 q k < f e % e a e q a a a a a e a a a a a a a q 0 a b q o U h.1X{.E.2X9X@X{.@X9X9XR.R.9X",
">X@X@X$X>X@X@X@X_.>X@X5XZ.5X5X2.v d % q q q a d a a a a a a a a a a a a a a a q h y e * g s q a a a a a a q a a a a a q a a a q h a - @ m ,.!.9X2X].@X3X&X).^.>X-X@X@X@X@X",
"R.9X9X XY.-X9X1XR.R.9X9XR.Y.-X1X`.9./ V 4 . * q q s s - a a a g s a a g f q q s q q q f q q q s a s q q q d r q q q a ; a < - $ o h J 4.(.9X2XY.R.9X9XR.Y.>X9X@XR.R.9X9XR.",
"@X5X>X@X X@X>X-X@X@X>X>X@X@X-X>X2X&X>X/.h.#.I h a % $ * * e e - ; a - * * q q q < a a % - j a q - - - a ; - % - q $ $ 9 w h F } y.V.$X>X&X2X-X@X@X9X-X@X X-X>X$X@X@X>X>X@X",
"9XR.R.>X9X@XR._.9X>XR.R.>X9X@XY.@X9X>X{.{.>X9XT.y.8.5.#.W Z V V k h h x m g s h c f s k f s s h k h h h n L U L ^ | 1.7.p.C.%X9X_. X9X5X@XU.`.'.>XW.R.9X9X@XW.@X9X>XY._.9X",
"9XR.R.>X9X@XR.@X9X>X X^.>X9X$XR.&X5X9X_.R.%X5X-X@X>X9X>X$X@X-X9X!.I.!.`./.C.C.!.`.I.C.Q.^.Q.C.I.$X`./.U.^.>X>X@X}.2X9X2X&X5X9X#XW.W.*X5X@XR.@X9X-XR.{.5X9X@X^.-X9X>XR.@X>X",
"@X9X9XoXR.@X9X>XY.@X9X9X XR.>X9X-XR.@X9X5XR.R.,X5X#XW.R.1X1XW.U.,X5X5X#X#X%X1X#X@X>X9X-X@X5X1X5X@X@X-X5X,XW. X5X9X_.E.'.%X@XoX.X>X9X2X@X-X9X-X{.@X9X5X XR.>X9X@XR.@X9X>X@X",
"R.9X9X_.Y.>X9X-XR._.9X9X@XR.@X9X>XR.Y.1X9X@X X&X9X>XR.{.9X9X@X{.-X9X2XY.{.5X9X XL.>X9X@XY.{.5X9X{.{.>X9X3X{.@X9X1XY.L.>X1X$XR. X>X>XU.L.-X1X@XU.@X9X9XR.R.>X9X-XY._.9X>X{.",
">X_.{.-X1X@X_.@X>X$X@X@X>X>X@XR.(.-X>X@X@X&X@X>X@X&X>X-XoX{.&X>X-X@X@X>X>X@X@X$X>X-X{.@X>X>X&X@X@X$X$X^.@X$X$X^.-X>X>X&X@X>X'.`.$X@X-X>X@X X&X9X@XoX@X>X>X@X{.$X>X-X@X@X-X",
"9XR.Y.1X9X@XR.{.9X9XR.L.>X9X@XR.-X9X9XR.R.1X9X@XU.R.1X9XR.W.5X9X XR.@X5X5XU.R.5X9XW.R.-X9X-X^.R.9X9X@XY.@X9X>XR.I.>X9X^.Y.@X9X5XR.{.9X9X@XU._.1X9XR.R.1X9X_.Y.@X9X9XY.R.9X",
">X@X@X@X>X>X@X@X-X@X-X>X-X@X$X@X@X-X-X@X@X-X-X@X@X$X@X@X>X-X@X@X@X>X-X$X@X-X@X@X@X@X$X-X@X>X@X@X>X@X>X@X@X@X>X@X@X@X@X@X@X>X>X@X@X>X@X@X@X-X-X@X>X@X@X$X>X@X-X@X@X@X-X$X@X",
"R.9X9XR.L.@X9X9XP.@X5X5X@XR.-X9X>XR.R.9X9XR.Y.1X9X>XR.W.>X9X@XY.@X9X>XY.R.9X9X@XY.>X9X-XR.@X9X9XR.R.@X9X@XY.@X9X9X_.Y.>X9X@XR.R.9X>X@XR.>X9X-XY.@X9X9XY.Y.>X9X@XR.@X9X9X@X",
"@X>X>X@X@X@X>X>XoX@X>X$X@X X-X9X@X@X@X>X>X@X@X-X>X-X@X@X$X>X$X@X>X>X@X@X@X>X-X@XW.>X9X@XR.@X>X>X@X@X>X>X$X@X@X@X>X@X@X>X>X@X@X@X>X-X@X@X$X5X$X@X@X>X>X@X_.-X>X-X@X@X@X>X@X",
"9XR.R.9X9X@XR. X9X5X{._.>X9X@XR.@X9X9X{.R.9X9X@XY.@X1X>X X@X@X9X@XR.@X9X9X_.{.9X9X@XR.@X>X>X XR.>X9X@XR.@X9X9XR.R.>X9X@XR.@X9X>XR.@X5X9X@XR.@X9X>XY.R.9X9X@XR.@X9X-XR.@X>X",
"9X{.R.>X9X@XR._.9X>XR.R.-X9X@XR.@X9X9XR.R.>X9X@XY.@X9X9XR.R.>X9X_.R.@X9X>XR.R.9X9XoXU.@X9X>XR.R.9X9X@XY.@X9X>XR.@X>X9X@XR.@X1X9XR.R.9X9X@XR._.9X1XR.Y.>X9X@XR.@X9X>XR.@X>X"
};
