/* XPM */
static char *_20615aca3a2489fdc9d4b4182b84d3feoFFbqTIc8rPEHli[] = {
/* columns rows colors chars-per-pixel */
"85 85 235 2 ",
"   c None",
".  c #1C0500",
"X  c #1C1512",
"o  c #271507",
"O  c #371B04",
"+  c #281B13",
"@  c #290E05",
"#  c #39210B",
"$  c #372719",
"%  c #2F2318",
"&  c #382D24",
"*  c #3C3228",
"=  c #3A3738",
"-  c #2E2A28",
";  c #421E00",
":  c #462302",
">  c #4A2402",
",  c #4A2B0C",
"<  c #522D09",
"1  c #4C2E12",
"2  c #432C14",
"3  c #4C331A",
"4  c #5B3C1C",
"5  c #553617",
"6  c #54300E",
"7  c #653E16",
"8  c #6B3A07",
"9  c #443424",
"0  c #4A3622",
"q  c #4C3B2B",
"w  c #483829",
"e  c #553C25",
"r  c #5B3D23",
"t  c #543E2B",
"y  c #443C35",
"u  c #463C34",
"i  c #483426",
"p  c #603F20",
"a  c #7D470E",
"s  c #77440D",
"d  c #6D4114",
"f  c #6B441B",
"g  c #64411B",
"h  c #7D4A13",
"j  c #75491B",
"k  c #6E400E",
"l  c #5C4126",
"z  c #59432B",
"x  c #4B433A",
"c  c #5B4933",
"v  c #564739",
"b  c #6D4925",
"n  c #684828",
"m  c #714E2A",
"M  c #754C23",
"N  c #795228",
"B  c #664C35",
"V  c #6C533B",
"C  c #6A5339",
"Z  c #785739",
"A  c #734F35",
"S  c #5F411F",
"D  c #4A4543",
"F  c #554D44",
"G  c #594E45",
"H  c #584F49",
"J  c #5C534B",
"K  c #585248",
"L  c #595752",
"P  c #5A5855",
"I  c #4B4B55",
"U  c #675648",
"Y  c #745B44",
"T  c #775C47",
"R  c #645B53",
"E  c #685D57",
"W  c #69564A",
"Q  c #7D624A",
"!  c #63615D",
"~  c #6C625C",
"^  c #6B6356",
"/  c #7C6551",
"(  c #72655B",
")  c #786759",
"_  c #656565",
"`  c #6C6965",
"'  c #6C6B6B",
"]  c #6B6565",
"[  c #746C66",
"{  c #7B746D",
"}  c #78736B",
"|  c #747474",
" . c #787672",
".. c #7D7A75",
"X. c #7C7C7C",
"o. c #767A7D",
"O. c #716F70",
"+. c #5C6061",
"@. c #834D16",
"#. c #8F5519",
"$. c #A25E16",
"%. c #9E611B",
"&. c #A2611A",
"*. c #A8641A",
"=. c #B2691C",
"-. c #85592C",
";. c #885827",
":. c #925D25",
">. c #915E2A",
",. c #9B5F23",
"<. c #845D38",
"1. c #94612C",
"2. c #9B642C",
"3. c #9E692E",
"4. c #9A6223",
"5. c #8C633C",
"6. c #8A6238",
"7. c #926232",
"8. c #9C6934",
"9. c #91653B",
"0. c #94693C",
"q. c #9C6B38",
"w. c #A3692D",
"e. c #AA6D2C",
"r. c #A66825",
"t. c #B16E25",
"y. c #B26F28",
"u. c #B4722A",
"i. c #A36C32",
"p. c #A66E35",
"a. c #AA733A",
"s. c #A5713A",
"d. c #BD7D36",
"f. c #BD7E3B",
"g. c #B47737",
"h. c #AD702E",
"j. c #C37E35",
"k. c #CE7E27",
"l. c #825F43",
"z. c #826144",
"x. c #8C6542",
"c. c #84654B",
"v. c #8D6B4C",
"b. c #8B6947",
"n. c #936B43",
"m. c #926A45",
"M. c #9A7248",
"N. c #8B6D53",
"B. c #836954",
"V. c #88725B",
"C. c #957252",
"Z. c #A57848",
"A. c #B67D41",
"S. c #A67C52",
"D. c #867768",
"F. c #827B73",
"G. c #827E7B",
"H. c #897F73",
"J. c #897768",
"K. c #7E807F",
"L. c #BE803D",
"P. c #C4833C",
"I. c #C68237",
"U. c #BD8142",
"Y. c #B9834A",
"T. c #B18456",
"R. c #82817E",
"E. c #8C857D",
"W. c #8C8378",
"Q. c #94897D",
"!. c #9B8C7C",
"~. c #948778",
"^. c #C48642",
"/. c #C38848",
"(. c #7E7F81",
"). c #817F80",
"_. c #7F8081",
"`. c #79828B",
"'. c #848382",
"]. c #8A8682",
"[. c #8C8985",
"{. c #858689",
"}. c #8C8C8A",
"|. c #878888",
" X c #938D85",
".X c #9A8E83",
"XX c #948E89",
"oX c #988E88",
"OX c #959186",
"+X c #9C9285",
"@X c #94918A",
"#X c #9D948A",
"$X c #9F988B",
"%X c #9D9993",
"&X c #999794",
"*X c #868C92",
"=X c #A29484",
"-X c #A1968A",
";X c #A4998C",
":X c #AC9D8E",
">X c #A99883",
",X c #B09F8D",
"<X c #A49C93",
"1X c #AB9E92",
"2X c #A19E9B",
"3X c #AEA08E",
"4X c #B2A18D",
"5X c #BBA78F",
"6X c #ADA193",
"7X c #A4A19D",
"8X c #ABA399",
"9X c #B3A393",
"0X c #BAA995",
"qX c #B6A99A",
"wX c #BCAD9C",
"eX c #B7A796",
"rX c #BFB09D",
"tX c #A19FA0",
"yX c #A2A2A1",
"uX c #ADA8A4",
"iX c #B6AEA6",
"pX c #BCB1A2",
"aX c #B6B2AA",
"sX c #BBB9B5",
"dX c #B9B8B7",
"fX c #C1AF9B",
"gX c #C2AE96",
"hX c #C2B19D",
"jX c #C5B197",
"kX c #C3B4A2",
"lX c #CBB9A6",
"zX c #C2BCB6",
"xX c #C8BFB6",
"cX c #C8C1B7",
"vX c #C6C5C1",
/* pixels */
"                                                                                                                                                                          ",
"                                                                          aX8X7X7X%X%X%X&X&X&X&X                                                                          ",
"                                                                7X| _ P R 6X6X1X>X+X X X].W.X...P XX                                                                      ",
"                                                            @XO.{ [.*XG.^ kX9X9X:X;X+X#XXX[.].}.| -  X#X#XvX                                                              ",
"                                                        Q.{ [.#X@X[.'.].~ 6XwX3X:X-X+X#XOX[.'.}.P ~ cX5X3XE.].uX                                                          ",
"                                                    F.~.$X8X;XOXXX[.].[.~ -XwX4X:X;X$XOX@X|.E.[.K E.rX3X3X3X#XE...&X                                                      ",
"                                                  { wXwX3X;X$X+X@X X[.[.O.E.wX3X:X-X#XXX X[.].E.P 9X0X3X3X-XOX#XXX_.]                                                     ",
"                                                iXoXkX4X3X:X%X#X@XXX[.]. .F.pX3X:X;X#X#XXX[.].X.[ rX9X3X-X$X#X[.].}.o.|                                                   ",
"                                              dXR ( hX5X4X1X<X-X#XoX[.[.R.} wX4X3X;X$XOXXX[.}.| H.pX6X:X-X#XOX[.'.[.+.= ' 7X                                              ",
"                                            aXO.}...{ wX9X3X:X-X#XoX X[.].` 9X6X;X;X-X+XXX[.[.` !.0X3X;X-XOX X[.[.K.=  .|.| &X                                            ",
"                                          sX..@X|.[. .F.wX4X:X;X-XOXXX[.}.[ 3X9X:X;X#XoX X[.].[ 5X5X:X-X#XOX X].}.L _ }.'.@XG.7X                                          ",
"                                          W.$X@X X|.}.O.W.wX3X;X;X#X@X[.}.O.!.eX;X-X#XoXOX[...} wX9X:X-X@XoX[.}.' ' }.'. XXX<XW.aX                                        ",
"                                        Q.1X-X#XOX X].[.' Q.qX:X;X#X+XoX}...OXpX9X1X<X%X@X&X..[.0X;X;X#X@X[. X ._ }.]. X@X#X#X8XQ.sX                                      ",
"                                      7XqX9X:X-X#XOX X[.[.`  X9X-X-X.XOX#X} v D.V.D.) ` ( ( G ( eX9X;X+XoX@XX.! '.[. XXX+X$X:X6XqX;X                                      ",
"                                      L pXwX,X1X;X#XoX[.[.[.( OX1X1X;X~.U 9 3 1 5 n # 2 0 5 n 5 0 [ Q.-X@X'.E |.[. XXX#X$X:X,XeXlX( vX                                    ",
"                                    ' J G :XfX:X1X<X#X#X X X'. .9XW.W c 3 $ z g d N , e r g M 7 + w u R ..` X.}.[.#X#X-X:X,XwXeX{ ~ '                                     ",
"                                  '.'.}.| P OXwX0X:X-X=XOXOX[.L c 3 7 M 4 2 l 4 d M , e 4 S b 4 O z 3 l z x E.@X@X+X-X:X9XwXOX' o.}.'.K.                                  ",
"                                  X.XX].[.|.[ } #XwX6X;X#X<XK o e 4 S M 4 $ l 4 f b , q e S j 8 O z 5 g m 5 x @X$X;X:XeX6XD.[ E.[.].OXR.dX                                ",
"                                $XOXOX X[.E.[.W.` F.1X9X:X) & o e 4 7 M 5 , l 4 f m , 3 4 g ;.s # C n M 1.6 o R ;X3XqXOX( K.[.[.XX XOX#XE.                                ",
"                                W.<X#XOXOX}.[.[.[...` +XV.l e o S 4 d M 4 2 l 4 k N 6 V Z 7.U.4.1 N.0.p./.a , ) ^ 3X{ [ [.}.[.}.@X@X#X;X XiX                              ",
"                              8X>X6X$X$X$X@X@XOX[.[.}.J 5 m 5 o e 4 g M 4 2 4 d %.L.d Q x.8.f.%.6 v.<.i.P.a : V.C c W.}.}.OX@X@X#X%X;X:X9XOX                              ",
"                              %XwX3X3X3X3X$X$XOXoXXX@Xv l f 3 X S e S M 5 3 Z 8.u.L.k z.5.w.d.&.1 v.5.w.^.a > N.b.C ~.}.OX!.$X$X-X:X1X9XkX:X                              ",
"                              @X;XkXrXeX3X3X3X+X+X;XF.0 n g 3 o S 4 g j j b m.2.t.L.d z.5.w.d.&.1 c.5.i.P.a : v.5.6./ %X@X=X>X6X9XwXwXwX.XE.                              ",
"                              ` G [ Q.3X9XqXqX6X<X8XB 3 g S 2 o z 5 5 L.7.b x.2.t.U.d z.6.3.d.&.1 z.5.w.^.h : N.7.s.Z #X7X6X:X$X!.Q.D.{ ~ `                               ",
"                            uX . X.. .{ { H.[.+X8X!.0 r g S # X e 4 4.Y.:.b 0.2.y.U.7 z.5.i.d.&.1 Y 5.w.P.h : C.7.s.0./ E.{ {  .....R.W.}.R.@X                            ",
"                            &X'.[.}.}.}.'.R...} F.G w 4 d n o X S -.e.L.1.b 5.2.t.L.d l.5.3.f.&.$ V 5.w./.a > N.6.s.Z.C F.R.[.}.}.}.[. X[. X}.                            ",
"                             XOX@X@XOXOXXX X X XOXJ 0 4 7 m o X Q 7.w.L.:.b b.3.t.P.d l.5.3.d.*.o l.0.w.P.a > N.6.i.U.0.!.}.}.!.OX@X@X#X+X#X|.                            ",
"                            Q.:X-X=X#X+X#XOX.X X#XG 0 4 7 N 2 % q.1.w.L.:.b 0.1.t.U.d l.5.8.d.&.O v.6.w./.a > N.6.e.L.N !.&X$X=X+X=X#X;X;X3X[.                            ",
"                            OX4X:X>X:X>X-X-X-X-X#Xq 3 4 d j n O 0.>.w.L.:.b n.2.y.j.7 c.5.3.d.&.1 v.6.w./.a > N.6.e.L.M >X7X8X6X9X9X9X9X9XwX#X                            ",
"                            +XlXhXkXkXrXwXwXeXqX6X& q 4 7 <.Z O m.7.r.L.:.b b.2.y.P.d l.x.w.f.&.< v.6.i.P.h > N.5.w.U.d V.$X+X!.=X!.=X>X>X9X#X                            ",
"                            iXG ^ ^ ) ) } J.J.!.~ % z z e B.Q O m.7.w.L.1.n z.7.u.j.d l.l.w.j.&.6 v.6.w./.a : N.5.3.L.j V.OXQ.!.~.~.~.~.!.U aX                            ",
"                              ] $XQ.~.Q.Q.~.!.=X{ % q 9 w R v O 5.7.w.U.>.n B.7.u.j.7 T x.w.f.&.1 v.6.w.P.a : V.5.3.h.T.jXwXrXgXfXfXjXfXkX XsX                            ",
"                            xX6XhXfXhXfXhXfXfXfXkXu i 6 @.-.v = -.1.t.k.$.r E A =.k.a l.l.r.j.%.< v.<.i.^.@.> N.x.2.p.S.,X<X1X:X3X6X6X6X6XQ.                              ",
"                            zX=X9X6X,X6X1X6X,X1X9XF i u B.B.G = V / x.S.<.c E W M.S.7 l.l.w.f.%.1 v.5.2./.8 ; v.x.2.p.Z.,X<X-X:X-X:X$X;X6XE.                              ",
"                            zX.X1X:X;X;X:X;X:X;X1XH y D _ _ O.~ ~ ! } ] ~ ! ~ ~ ) [ [ T l.w.f.%.1 v.x.>.f.@.; N.9.2.w.C.=X&X#X-X$X#X#X+X;XW.                              ",
"                            sX[.;X-X-X-X+X-X+X#X#XF y H E ~ ] _ E ~ ~ E E E ] W W W ~ G <.i.f.$.< c.z.2.g.@.; B.9.w.2.C.oX}.}.oX[. XXXXX@XR.                              ",
"                            sXE.oX X.X XoX.XoX.X#XD & n Z Z U = V V Z n.A t E W 0.p.5 T x.2.d.$.6 T T <.a.@.; B.9.p.>.N.).).}.).].[.].[.[...                              ",
"                            dXX.XX X}. X[. X[.[.XXu 9 T M.z.v - n.7.e.j.,.n ( Y e.I.s z.5.w.j.&.6 [ D t l.-.O l.5.p.>.l..X}.XXoX[. X[. X@X..                              ",
"                              ..}.].].|.'.].].].[.y i B.T ( u % 0.1.w.j.,.l ) A t.I.8 T x.3.d.e.c R I D t A t Y 9.p.>.l F ! E R L J J J K =                               ",
"                              ' G.G.G.G.G.G.G.G.| & t Y U / U O m.7.w.A.>.n U N g.I.d Q x.3.f.p.c H y 9 r Y i Y 7.a.7.3 [ <X#X#X$X#X+X!.+XW.                              ",
"                              F R R R U K J G G y % t l.i.S.<.O m.7.i.f.:.A n N g.f.d z.x.w.A.h B / T 5.N Z $ Y 9.a.6.3 9XhXwXwXwXwXrXwXgXeXuX                            ",
"                              #XkXwXhXwXwXpXpXhX<X9 t ;.y.j.-.O m.>.w.f.:.b r >.t.j.d l.l.8.A.7 B Y m.a.#.p * T 6.a.9.# >X9X,X1X3X3X3X3X4X;XuX                            ",
"                            zX<XeX9X9X9X9X9X9X9XfXv 3 9.u.U.-.O m.1.r.A.9.1 l q.y.U.7 l.5.s.S.: q U z.M.Z 2 $ U 9.a.0.O =X1X;X1X;X;X$X3X3X+XuX                            ",
"                            zX#X6X:X3X:X:X:X:X:X9Xt i v.M.A.<.2 C.0.i./.5.O v.s.h./.f z.m.M.S.4 9 ( V.J.B.u = T M.a.M.O .X#X#X#X$X$X$X$X+XOX7X                            ",
"                            zX X;X#X-X#X-X;X-X-X<Xu i m.Z.S.m 2 C.0.i.Y.9.B C.8.g.Y.f c.b.q.Y.8.& J E Y T & + B.n.s.Z.: E.@X@XoXOXOXOX@XOX[.7X                            ",
"                            sXE.#X#X#X#XoXoXOX#X2X& t m.e.A.b $ C.0.i.U.3.N v.8.u.U.d N.x.w.I.r.+ W B.b.T.1 . / n.q.Y.6 H.}.[. X[.[.[.Q.OXR.tX                            ",
"                            sXG.OX X[.oX X X X X%Xi e 7.r.f.7 + m.7.w.L.>.b x.,.y.j.7 c.5.w.d.*.. Y m.8./.d . / x.i.U.7 H.*X}.].|.E.|.[.[.K.&X                            ",
"                            dXF.[.'.].].].E.].E.).u e 9.r.Y.5 + 0.1.w.L.>.b x.w.y.U.d l.5.w.f.r.. Q 5.e.P.@.@ B.5.e.P.d R `.o...........K.` dX                            ",
"                              | }.{.{.}.{.{.{.}.'.* l 1.=.j.6 + m.>.r.U.>.j n.,.t.L.d z.5.3.d.%.# v.6.8.P.@.O N.<.e.A.d c ( ^ U U L U J v !                               ",
"                              D R R P L K K G H = * z 5.9.S.r + m.7.w.U.>.n b.8.t.U.d <.5.3.f.$.6 v.5.w.P.@.; N.6.p.f.9.gXaXpXhXpXrXwXrXkX$X                              ",
"                               X0X9X9X9X9X:X:X4X.X9 w T T ( u + m.7.w.A.>.n V.<.h.L.d Q x.3.d.$.1 v.6.w.^.a > N.6.p.f.S.5X7X8X4X9X6X9X9XeX+X                              ",
"                              1X0XeXeX0X0X0X0X0XpXv 0 V W W G & m.7.i.j.>.t ( A e.I.k Q x.3.g.,.6 m.6.w.^.a > N.6.h.g.Z.,X7X6X3X:X1X1X1X3XOX                              ",
"                            zX+X6X:X,X:X:X:X3X3X8Xv w / C./ G = l.z.0.A.>.c E U w.^.d Q z.i.g.#.1 v.9.w.^.@.> N.6.i.g.M.!.7X$X-X-X;X;X#X;XQ.                              ",
"                            zX X<X-X;X;X;X<X$X-X<XF y W Y Q [ R T T B.c.Z W E T 5.x.V Q <.8.g.#.6 v.6.w.P.a ; B.5.w.L.M.!.$X@X+XOXOXOX.X#XW.                              ",
"                            sXW.$X#X#X#X@X#X#XOX$XF D _ ~ ( [ ] ~ E [ E ^ ( ~ R Y Y [ C <.i.a.@.6 v.6.i.P.@.O / 5.e.g.n.!.}.OX.XQ.oX[.Q.OXX.                              ",
"                            dXW.@X[. XOX[.XX XoX@Xx * F R R L D W W Y l.V G P U / c.q Y l.i.A.h 6 v.6.w.^.h @ c.5.e.g.n.Q.`.{.E.].'.].|.[...                              ",
"                            dX..}.].[.].].[.].]. Xu 9 Y N./ H - b.l.q.Y.7.c _ Y s.Y.d c.x.w.g.7 6 v.9.w.j.@.@ / b.e.h.Z E.*X*X}.}.}.{.*X}.|                               ",
"                              ..XX}.[.}.}.[.}.}.[.u 0 5.9.l.t - 0.,.r.j.,.r [ Z t.k.k l.x.3.A.8 < v.5.w.^.@.. T 0.i.i.l * D = y = y y = - }.                              ",
"                              D ~ R P R L J J J D * w Z Z <.n O n.;.,.j.,.b c.>.t.I.k z.l.3.Y.8 , N.x.w.^.@.. B.5.a.>.B ~.=X+X+X!..X.X!.Q.OX                              ",
"                              ..;X+X=XOX.X!..XOXF.u t l.z.T.l.O C.;.,.^.>.b l.;.h.U.d z.5.3.A.@., l.<.w.^.h @ B.6.a.-.Z lXgXjXhXjXfXfXfXlX=X                              ",
"                              8XpXwXrXwXwXfXwXpXpXv 3 <.q.Y.-.O N.M w.A.>.b l.@.u.L.d z.l.w.g.,.1 l.l.w.^.a O N.6.s.s.6.5X3X3X4X,X,X,X,X4X+X                              ",
"                            zXOX3X3X3X:X4X:X:X:X9Xv 3 -.e.j.-.O b.j w.j.:.b Z -.u.j.k z.9.w.p.,.1 Y <.w.P.s > N.5.p.g.Z.,X%X%X:X:X<X<X;X:X X                              ",
"                            zX.X3X$X;X-X-X:X-X;X1Xv 9 -.e.j.-.# l.b p.j.:.m B -.u.j.d l.x.2.w.>.3 A A 8./.@.> N.5.i.g.M.=X&X&X-X#X%X#X#X;XE.                              ",
"                            zX[.$X#X#X$X+X@X#X#X#Xx 9 b s.A.-.; B b p.h.:.A l -.g.P.d l.x.>.,.,.3 B r 9./.a > N.5.w.a.M.+XXX#X.XXX#XoX.X#XE.                              ",
"                            sXW.OXOX XoXOXoX XQ.+Xv * g t.j.;.O 0 M e.&.h A <.> r.^.7 <.9.:.#.%.5 n 5 >.P.@.> v.b.#.g.8.!.}.}.Q. X X X X X..                              ",
"                            sXF.}.[.[.[.[.|.|.].}.x & 5 Z.Y.5.. 9 Z Z.Z.> U N.Z > Z.n l.v.<.;.q.3 U c m T.j > J.C N T.M.Q.{.{. X|.].|.[.[...                              ",
"                            zXX.*X|.|.}.}.|.}.}.[.= % $ B Z z o & t m C + q c V 3 q t c B z 4 n & w 9 0 C 4 # U 3 c V C R.`.|.R.'._.'._.'.|                               ",
"                              I O.` ` ' ` ' _ ] ! Q.7X>X=X.X#X<X;X=X=X=X:X=X=X.X-X=X-X=X+X=X+X=X-X$X-X$X+X=X>X=X;X+X=X~.R ! ! ! E ! ! ! ! L                               ",
"                              R W. .F.F.F.F.F.F.E.%X$X#X-X-X#X;X$X$X;X-X-X-X-X;X;X-X-X-X-X-X-X;X$X;X;X$X;X-X-X;X$X;X-X$X$X$X@X#X#X$X#X#X<X{ dX                            ",
"                            dX' $XOX@X@XXX XXXXXXX[.[.Q.[. X[.].[.[.[.[.[.[.[.[.[.[.[.].[.[.[.[.[.].[.].].[.[. X[.[.E. X[.[.[.Q.[.[.[.[.@X` dX                            ",
"                              _ }.|.'.|.|.{.'.|.|.'.|.|.|.[.|.|.|.|.'.|.].].].{.].].|.|.].[.|.|.|.|.|.{.|.|.'.[.|.'.|.|.|.|.|.|.[.|.|.'.XX_                               ",
"                        yX2X .D P P L L L L L P P L L L L L L J L L L L P P L L L P L L L L L L J L L L J L L L L J L J L L L L J L P P P D | 2XuX                        ",
"                      uX~ =X.X;X-XoX#X-X#X=X#X-X+X-X#X#X-X#X#X#X=X#X#X-X#X+X-X#X#X#X#X=X#X=X#X-X#X#X#X#X+X#X=X-X#X-X#X#X#X#X#X-X$X-X#X#X-X-X.X+X~ uX                      ",
"                      yXE.0X4X:X,X,X1X1X1X,X1X1X3X3X,X:X:X:X:X6X:X,X1X:X1X,X6X:X:X:X1X1X:X:X1X1X3X3X,X:X:X:X:X1X:X6X:X,X:X3X3X:X3X:X1X:X6X,X6XqXQ.7X                      ",
"                      yX..;X=X#X#X-X-X-X=XoX-X=X+X+X=X-X+X+X=X-X-X+X-XoX-X=X-X+X-X=X-X-X#X=X-X=X#X=X-X#X#X-X#X-X-X#X-X=X+X=X+X-X=X-X-X=X#X+X=X<X{ 7X                      ",
"                      yX} #XXXXXXXXXXX@XXXXXXXXX@X@X@XXX@X@XXXXXXXXXXXXXXXXXXXXXXXXXXXXXXXXXXXXX@XXXXXXXXXXXXXXXXXXXXXXXXXXXXXoX@XXXXXXXXX@XXX#X} 7X                      ",
"                      yX' @X[.[.[.[.[.[.[.[.[.[.[.[.[.[.[.[.[.[.[.[.[.[.[.[.[.[.[.[.[.[.[.[.[.[.[.[.[.[.[.].[.[.[.[.].[.[.|.[.[.[.[.].}.].[.[.XXO.7X                      ",
"                      %X_ }.'.R.E.).].).].'.).].).G.].'.E.'.'.'.].'.'.].).].).'.).].).).'.].).].].R.'.'.R.].].'.].).].'.).].'.'.].'.].'.'.'.R.}.` tX                      ",
"                      7X_ |.R.R.).).).).).).).).).G.'.(.R.G.).).'.X.G.).).).).).'.).).).).).).).G.'.X.'.G.).R.).).).G.).G.).G.'.G.G.'.R.G.G._.]._ tX                      ",
"                      yX_ |.K._._.(.'.)._.'.(.).).'._._.(.'.).)._._._.'.).).{.).).).).).).(.'._.)._.'.(.)._._._.).(.(.'.).).'.(.(.)._.(.'.(.(.{._ tX                      ",
"                      tX_ '.(._._.(.'.(.(.'.(.(._.)._._._.(.'.(.(.'.(.(._.'.(.(._._.(.'._.'.(.(.)._._._._.(.(.'.)._._._._.(.(.'._._._.(._.K.X.|._ tX                      ",
"                      tX' }.'.'.'.'.'.'.'.'.'.'.'.'.'.'.'.'.'.'.'.'.'.'.'.'.'.'.'.'.'.'.'.'.'.'.'.'.'.'.'.'.'.'.'.'.'.'.'.'.'.'.'.'.'.'.'.'.'.}.' yX                      ",
"                      uXI X.| | | | | | | | | | | | | | | | | | | | | | | | | | | | | | | | | | | | | | | | | | | | | | | | | | | | | | | | | X.I yX                      ",
"                        ].o.X.X.X.X.X.X.X.X.(.X.X.X.X.X.X.X.X.X.X.X.(.X.X.X.X.X.X.X.X.X.X.X.X.X.X.X.X.X.X.X.X.X.X.X.X.X.X.X.X.X.X.X.X.X.X.X.X.X.|.                        ",
"                                                                                                                                                                          "
};
