/* XPM */
static char *f789cca5d2bd4a21f1eddd2318b27e644wc0Zi0MGFs75MA6[] = {
/* columns rows colors chars-per-pixel */
"85 85 238 2 ",
"   c None",
".  c #020202",
"X  c #0B0100",
"o  c #010B01",
"O  c #020309",
"+  c #0A020A",
"@  c #010B0A",
"#  c #0D0A06",
"$  c #120201",
"%  c #1A0506",
"&  c #031403",
"*  c #061608",
"=  c #151707",
"-  c #090911",
";  c #120013",
":  c #081716",
">  c #151715",
",  c #291D17",
"<  c #2A0A14",
"1  c #042B01",
"2  c #172707",
"3  c #092115",
"4  c #19271F",
"5  c #103615",
"6  c #342811",
"7  c #2B2812",
"8  c #0A072B",
"9  c #211926",
"0  c #2A162C",
"q  c #12283C",
"w  c #272A2D",
"e  c #362B2D",
"r  c #273D2C",
"t  c #273737",
"y  c #383938",
"u  c #322C2F",
"i  c #4A1C02",
"p  c #442204",
"a  c #4D321A",
"s  c #40292A",
"d  c #42352C",
"f  c #583A2B",
"g  c #623828",
"h  c #15411E",
"j  c #39421B",
"k  c #2E501D",
"l  c #154E31",
"z  c #3A542D",
"x  c #294638",
"c  c #3D483A",
"v  c #324F35",
"b  c #116E32",
"n  c #396A38",
"m  c #27763D",
"M  c #514E14",
"N  c #614F18",
"B  c #424429",
"V  c #564828",
"C  c #444737",
"Z  c #574938",
"A  c #445537",
"S  c #635436",
"D  c #6F502D",
"F  c #5B6728",
"G  c #4D6A3C",
"H  c #5B6638",
"J  c #577539",
"K  c #49733B",
"L  c #6C6939",
"P  c #706F34",
"I  c #393C43",
"U  c #2C344B",
"Y  c #493249",
"T  c #195A48",
"R  c #11734F",
"E  c #236649",
"W  c #267649",
"Q  c #367756",
"!  c #307351",
"~  c #2B7F65",
"^  c #584C44",
"/  c #485648",
"(  c #545E52",
")  c #514F49",
"_  c #6E5A49",
"`  c #6A534D",
"'  c #4B6948",
"]  c #597749",
"[  c #556456",
"{  c #517150",
"}  c #66624E",
"|  c #7A6B4A",
" . c #6A7446",
".. c #777449",
"X. c #646359",
"o. c #796657",
"O. c #69755D",
"+. c #7A7653",
"@. c #5E5A6E",
"#. c #546D6B",
"$. c #697565",
"%. c #747766",
"&. c #7A6868",
"*. c #805E39",
"=. c #8A7D54",
"-. c #8E674E",
";. c #A77854",
":. c #8C7572",
">. c #A27363",
",. c #C8725B",
"<. c #018139",
"1. c #19844C",
"2. c #31874F",
"3. c #3B927A",
"4. c #348E69",
"5. c #2FB17A",
"6. c #0F8764",
"7. c #4E9659",
"8. c #63874E",
"9. c #7A864C",
"0. c #6D9359",
"q. c #758D55",
"w. c #47997B",
"e. c #529679",
"r. c #4B8D74",
"t. c #79866B",
"y. c #728A72",
"u. c #6A926D",
"i. c #55B77C",
"p. c #76AA6A",
"a. c #6CB274",
"s. c #6AA971",
"d. c #58C37D",
"f. c #878545",
"g. c #8D945D",
"h. c #8E8E53",
"j. c #AD8859",
"k. c #94A05E",
"l. c #829C6A",
"z. c #968B7F",
"x. c #989A75",
"c. c #8C8B6E",
"v. c #AA866B",
"b. c #B89066",
"n. c #A48977",
"m. c #B29072",
"M. c #91AB71",
"N. c #ACA376",
"B. c #AEB272",
"V. c #E09752",
"C. c #C59C77",
"Z. c #CB8F72",
"A. c #D0A67A",
"S. c #EBB67D",
"D. c #E1936F",
"F. c #8EC57A",
"G. c #91738B",
"H. c #3D9F90",
"J. c #3AB587",
"K. c #2EB48C",
"L. c #4B9786",
"P. c #729787",
"I. c #54B08C",
"U. c #5AB1A0",
"Y. c #78B184",
"T. c #4DCA91",
"R. c #43D2A4",
"E. c #889889",
"W. c #999284",
"Q. c #928789",
"!. c #AA938D",
"~. c #8AA894",
"^. c #92AC8D",
"/. c #B7A687",
"(. c #A7A79D",
"). c #B1AF99",
"_. c #B293A8",
"`. c #9FADA3",
"'. c #ACB5A8",
"]. c #BDABB0",
"[. c #CB9F91",
"{. c #D09A8E",
"}. c #C7A581",
"|. c #DCB798",
" X c #CDB092",
".X c #E7B688",
"XX c #FBB78A",
"oX c #E7B899",
"OX c #FABB99",
"+X c #CAB1AF",
"@X c #FDBCA4",
"#X c #E5B8A6",
"$X c #8DC381",
"%X c #B2C9AE",
"&X c #A5C78A",
"*X c #DDC097",
"=X c #DAC181",
"-X c #E7C68C",
";X c #F8C889",
":X c #E9C898",
">X c #FFCC94",
",X c #FCCB9C",
"<X c #F7C798",
"1X c #EDD797",
"2X c #F9D495",
"3X c #F7D78D",
"4X c #D8D2AB",
"5X c #C6CBB9",
"6X c #D0C9BF",
"7X c #EACAAB",
"8X c #FEC4A4",
"9X c #FECAA3",
"0X c #FECDAB",
"qX c #F7C5A9",
"wX c #FFD3AC",
"eX c #F6D5A6",
"rX c #FECCB3",
"tX c #FBC7B5",
"yX c #EEDCBD",
"uX c #FED3BC",
"iX c #FBD8B6",
"pX c #EBDFAD",
"aX c #D8E4B5",
"sX c #FBE6BC",
"dX c #FFE2A9",
"fX c #BBAFC3",
"gX c #DBBBD4",
"hX c #97D6C1",
"jX c #CFC8C3",
"kX c #D7C9C6",
"lX c #D6D4CF",
"zX c #F5D8C6",
"xX c #CDFFD4",
"cX c #F4EFD2",
"vX c #DEFFEE",
"bX c #E8EEE4",
"nX c #E9FBE6",
"mX c #FCF4E8",
/* pixels */
"                                                                                                                                                                          ",
"                                                                                                                                                                          ",
"                                                                                                                                                                          ",
"                                                                                                                                                                          ",
"                                                                                                                                                                          ",
"                                                                                                                                                                          ",
"                                                                                                                                                                          ",
"                                                                                                                                                                          ",
"                                                                                                                                                                          ",
"                                                                                                                                                                          ",
"                                                                                                                                                                          ",
"                                                                                                                                                                          ",
"                                                                                                                                                                          ",
"                                                                                                                                                                          ",
"                                                                                                                                                                          ",
"                                                                                                                                                                          ",
"                                                                                                                                                                          ",
"                                                                                                                                                                          ",
"                                                                                                                                                                          ",
"                                                                                                                                                                          ",
"                                                                                                                                                                          ",
"                                                                                                                                                                          ",
"                                                              8 8         % % $ X . . .                                                                                   ",
"                                                          . . . . . $ < , . . . @ . . o . .                                                                               ",
"                                                          . o o . X X . . . . O . + . . . o . .                                                                           ",
"                                                            . . X X . X . . O O O O . . X X X X o .                                                                       ",
"                                                              X X X . + . O . O . O - O . X X X o o .                                                                     ",
"                                                              X . . O . . . O . @ O . . . . . . . & o .                                                                   ",
"                                                          X X . . . . . . . . . o . . . O . . . X . * o X                                                                 ",
"                                                          # o . O . . . . . X . X % . X X . . . + . . & &                                                                 ",
"                                                          w . . . O . . X X X X , ` , # . . . . ; ; . . & r                                                               ",
"                                                          c o . . o . . X X $ $ -.mX6XQ., X . o ; + + o o 1                                                               ",
"                                                          C o # $ X . . @ o o e iXqX9XwXoXa X o . o o 2 & & $.                                                            ",
"                                                        ( j X X X X . . . # 6 :XwX;X;X:XeXsXV $ X $ O.zX7 & +.                                                            ",
"                                                        L 4X X-.- o O o X a |.0X>X;X2X3X1X:X7Xi % v.uXzX|.& ..                                                            ",
"                                                        ..4X7XzX'.> X X f uX0XwX,X,XdX;X;X9XwXA.oXuX@X@XiXL P                                                             ",
"                                                        P dX}.Z.aXx.$ p tXuX>.-.-.m.{.tXiXwX,XwX0X@X@X@XwXx.h.                                                            ",
"                                                        N pXoXD.j.eXp b.qXtX[.+XW.&.^ s o. Xv.*.0X0X,X0XsXg.P                                                             ",
"                                                        a A.-X.Xj.S.;.3XeX<XuXzXmXvXhXI.E ' _ #X9Xb.:XN.f.J k.                                                            ",
"                                                        N h.-X.X,.XXwX-X3X,X>XsXmXxX5.5.b Y.yXtXeXh. . .0.J f.                                                            ",
"                                                          M f.-X@X,X<X3X3X3X>X.Xm.xXi.<.1.&X,XOXpXyXaX8.p.]                                                               ",
"                                                          f.F F -.j.=X3X;X;X>X,XN.=.k.8.B.1X;XS.7XpXcX0.] 0.                                                              ",
"                                                            B.k.q.M B.-X>X,X,XwXtX#X|.oXwX>X>XV.v.7XN.x.k ^.                                                              ",
"                                                              a.F.0.F  X:X>X8X8X@XzXm.{.|.qXwXoXoXuXiX..l.                                                                ",
"                                                          7.a.s.2.W 1 H 4X-X9X0XtX#Xo.).).W.W.).C.A.eX .M.                                                                ",
"                                                          a.7.b 4.e.Q h L |.<X<X,XiX.. .%XbXmX6X{.C.pXH                                                                   ",
"                                                        a.7.m i.U.3.~ h 2 M v.oX<X<X:Xj.C./.n.).S.1Xk.F                                                                   ",
"                                                      p.7.b i.I.w.L.E 5 l ] M D Z.D.XXOXXX;X,X-XA.*.F                                                                     ",
"                                                      p.! O.P.I.H.#.l b <.T.K.l ! n G P =.+. .' J 9.                                                                      ",
"                                                      u.' %X#.e.L.! E 1.1.T.4.4.I.4.n q.9.9.g.                                                                            ",
"                                                    P.! y.jX~.~ #.T 3.R 4.%Xs.4.R.T.m M.                                                                                  ",
"                                                    ~.' %.].E.P.[ T K.R ^.zX+XQ R.K.W F.                                                                                  ",
"                                                    u.' '.:.Q.P./ ~ K.R W.tX@X{ T.6.W F.              %.} W.                                                              ",
"                                                    y.G '.+XQ.#.l L.K.3.=.8XrXN.r.w.{ K p.    O.( ` G.lXjX                                                                ",
"                                                    ^.z t.(.fX@.@ l E r.9.XX;X*XB ~.c.r n 7.( X.G._.gX+X                                                                  ",
"                                                    q.A ( :.@.9 : * 3 2 M S.>X2X| !.W.C v O.^.].gXG.G.                                                                    ",
"                                                  / c C ) y I 9 : > w 7 2 b.-X>X{.g n.^ ' E.].:.                                                                          ",
"                                                  v ^.'.) 4 > @ : I d = # L <XwX@Xg >.^ X.y                                                                               ",
"                                                  5 z %./ : @ - t t u > # g [.>.-.D S o.d                                                                                 ",
"                                                  H B Z ) 3 - 9 t U u > u d < 6 Z S o._                                                                                   ",
"                                                   .x.-.C 4 - 0 d e 0 8 I y > }                                                                                           ",
"                                                  L =.+.B : : ) 6 e < 0 U x x                                                                                             ",
"                                                  S f !.6X~.w ; = % < U q x                                                                                               ",
"                                                    S !.kXvX$.^ M.:.Y 8 q                                                                                                 ",
"                                                      %.nX5XC %.+XlXlXt                                                                                                   ",
"                                                      A nX5X( [ kXbX`.c                                                                                                   ",
"                                                        ).t.O./ '.bX$.                                                                                                    ",
"                                                              v `.bX[                                                                                                     ",
"                                                                { t.                                                                                                      ",
"                                                                                                                                                                          ",
"                                                                                                                                                                          ",
"                                                                                                                                                                          ",
"                                                                                                                                                                          ",
"                                                                                                                                                                          ",
"                                                                                                                                                                          ",
"                                                                                                                                                                          ",
"                                                                                                                                                                          ",
"                                                                                                                                                                          ",
"                                                                                                                                                                          ",
"                                                                                                                                                                          ",
"                                                                                                                                                                          ",
"                                                                                                                                                                          ",
"                                                                                                                                                                          ",
"                                                                                                                                                                          ",
"                                                                                                                                                                          "
};
