/* XPM */
static char *fa8fb0a0ddc84371b3454dd0551751b2NztqY8gaqMrKFLFK[] = {
/* columns rows colors chars-per-pixel */
"85 85 11 1 ",
"  c #C26130",
". c #C36C41",
"X c #C46D42",
"o c #C57E5B",
"O c #C47F5B",
"+ c #C57F5C",
"@ c #C7967D",
"# c #C8A796",
"$ c #C8A897",
"% c #E1B098",
"& c gray80",
/* pixels */
" o#&&&&&&&&&&&&&&&&&&&&&&&&&&&&&&&&&&&&&&&&&&&&&&&&&&&&&&&&&&&&&&&&&&&&&&&&&&&&&&&$+ ",
"+&&&&&&&&&&&&&&&&&&&&&&&&&&&&&&&&&&&&&&&&&&&&&&&&&&&&&&&&&&&&&&&&&&&&&&&&&&&&&&&&&&&o",
"$&@.                                                                             .@&$",
"&&.                                                                               .&&",
"&&                                                                                 &&",
"&&                                                                                 &&",
"&&                                                                                 &&",
"&&                                                                                 &&",
"&&                                                                                 &&",
"&&                                                                                 &&",
"&&                                                                                 &&",
"&&                                                                                 &&",
"&&                                                                                 &&",
"&&                                                                                 &&",
"&&                                                                                 &&",
"&&                                                                                 &&",
"&&                                                                                 &&",
"&&                                                                                 &&",
"&&                                                                                 &&",
"&&                                                                                 &&",
"&&                                                                                 &&",
"&&                                                                                 &&",
"&&                                                                                 &&",
"&&                                     %%%%%%%%                                    &&",
"&&                                     %%%%%%%%                                    &&",
"&&                                     %%%%%%%%                                    &&",
"&&                                     %%%%%%%%                                    &&",
"&&                                     %%%%%%%%                                    &&",
"&&                                     %%%%%%%%                                    &&",
"&&                                     %%%%%%%%                                    &&",
"&&                                     %%%%%%%%                                    &&",
"&&                                     %%%%%%%%                                    &&",
"&&                                     %%%%%%%%                                    &&",
"&&                                     %%%%%%%%                                    &&",
"&&                                     %%%%%%%%                                    &&",
"&&                                     %%%%%%%%                                    &&",
"&&                                     %%%%%%%%                                    &&",
"&&                                     %%%%%%%%                                    &&",
"&&                                     %%%%%%%%                                    &&",
"&&                     %%%%%%%%%%%%%%%%%%%%%%%%%%%%%%%%%%%%%%%%                    &&",
"&&                     %%%%%%%%%%%%%%%%%%%%%%%%%%%%%%%%%%%%%%%%                    &&",
"&&                     %%%%%%%%%%%%%%%%%%%%%%%%%%%%%%%%%%%%%%%%                    &&",
"&&                     %%%%%%%%%%%%%%%%%%%%%%%%%%%%%%%%%%%%%%%%                    &&",
"&&                     %%%%%%%%%%%%%%%%%%%%%%%%%%%%%%%%%%%%%%%%                    &&",
"&&                     %%%%%%%%%%%%%%%%%%%%%%%%%%%%%%%%%%%%%%%%                    &&",
"&&                     %%%%%%%%%%%%%%%%%%%%%%%%%%%%%%%%%%%%%%%%                    &&",
"&&                     %%%%%%%%%%%%%%%%%%%%%%%%%%%%%%%%%%%%%%%%                    &&",
"&&                                     %%%%%%%%                                    &&",
"&&                                     %%%%%%%%                                    &&",
"&&                                     %%%%%%%%                                    &&",
"&&                                     %%%%%%%%                                    &&",
"&&                                     %%%%%%%%                                    &&",
"&&                                     %%%%%%%%                                    &&",
"&&                                     %%%%%%%%                                    &&",
"&&                                     %%%%%%%%                                    &&",
"&&                                     %%%%%%%%                                    &&",
"&&                                     %%%%%%%%                                    &&",
"&&                                     %%%%%%%%                                    &&",
"&&                                     %%%%%%%%                                    &&",
"&&                                     %%%%%%%%                                    &&",
"&&                                     %%%%%%%%                                    &&",
"&&                                     %%%%%%%%                                    &&",
"&&                                     %%%%%%%%                                    &&",
"&&                                                                                 &&",
"&&                                                                                 &&",
"&&                                                                                 &&",
"&&                                                                                 &&",
"&&                                                                                 &&",
"&&                                                                                 &&",
"&&                                                                                 &&",
"&&                                                                                 &&",
"&&                                                                                 &&",
"&&                                                                                 &&",
"&&                                                                                 &&",
"&&                                                                                 &&",
"&&                                                                                 &&",
"&&                                                                                 &&",
"&&                                                                                 &&",
"&&                                                                                 &&",
"&&                                                                                 &&",
"&&                                                                                 &&",
"&&.                                                                               .&&",
"#&@.                                                                             .@&#",
"+&&&&&&&&&&&&&&&&&&&&&&&&&&&&&&&&&&&&&&&&&&&&&&&&&&&&&&&&&&&&&&&&&&&&&&&&&&&&&&&&&&&o",
" o$&&&&&&&&&&&&&&&&&&&&&&&&&&&&&&&&&&&&&&&&&&&&&&&&&&&&&&&&&&&&&&&&&&&&&&&&&&&&&&&$o "
};
