/* XPM */
static char *_7078_77580b8dae4137173b947e0903a5d2fed19d2afb92127cc1f5a2af25c9dd58a1[] = {
/* columns rows colors chars-per-pixel */
"85 85 36 1 ",
"  c #7F390A",
". c #7F3D10",
"X c #833C0B",
"o c #8B3E0B",
"O c #803E10",
"+ c #8E400C",
"@ c #94420C",
"# c #9B460D",
"$ c #9F480D",
"% c #A0470D",
"& c #A44A0D",
"* c #AB4D0E",
"= c #B04F0F",
"- c #AF500E",
"; c #B3520F",
": c #BA550F",
"> c #A54D11",
", c #AE5012",
"< c #B55310",
"1 c #BD5610",
"2 c #BF5811",
"3 c #C15A13",
"4 c #C55E19",
"5 c #C7601B",
"6 c #C9621D",
"7 c #CC6622",
"8 c #CE6925",
"9 c #CF6A28",
"0 c #D06A27",
"q c #D26D2A",
"w c #D5712F",
"e c #D67331",
"r c #D97635",
"t c #DB7837",
"y c #DB7838",
"u c None",
/* pixels */
"  X X  X  X  X uuoXX  X  X  XX    X X   XOu+  +  +  XXX XXXXX + +  uuO         X     ",
"&&&&**&&&%&*&&@XXo%&&&&&&&&&&&&&&&&&&&&&@XXX+@+@+@@++@@@@@@@@@@+@@+  ++@@@@@@@@@@@@@@",
"7766666657663:;+o33334445535444333553333:+X-212566665655535325552:,++-112:32322222222",
"ttrtrreeeerw43:@o37werrrrrrrrreeeeerrw3::##15qrrrryyrtttetrryrrrw5:@#138qwwrewwwwwwqw",
"6434343333333::##4rrtrw7q0677656545463331##37yrtrew9776655555554321@&2wttttttwwwwwqq9",
":23:33:33:3333;#%4rrr7333331331333333313:@#28ttw52222::2:211111:221#$2eytw86532312222",
"3333::33333:3::#%4rr73:3::3333::313:3:311#$28rt51222222222222222221#$3erw5:1122222222",
"3::3333:3:3:33:@%6te4333333::333133:33131##28re22222222222222222111#$3et9122122222222",
"333:333:3::333=o%3rr433:3333333:3:333133:#$17tw233333::322222222221#$2et7222222222222",
"::33::333333:3;%%6re3333::33::33133:1311:@$37y92::3333332222222221;@$3ey6222222222222",
"33333333333333&oo306333333333333:33:111:*@$139313:33::3:2222:32:2:&+&29e2222221222222",
"**==--==*-*-**&oX%=**&&*&%**&%-=*******&$Xo&*&&&%%&&&%*=&&&&&&&&&&&++<1<;<<<<<<<:<<<;",
"oooooooooooooooXXXoooooooooooooo++++++++X  X@@#@o%o%##oo#@@@#@@@@@+  +@###@#@#@@@@@@@",
"ooXXX%*&*&*=%%%%&*%%*&&*&&%%XXXo@@@@@@@@@@##@@@@#o%ooXXXX@@@@@@@@@@@@+@+@+@+@@@+  ++@",
"3=oX=33444677646666444664333oo;3133535553533333343333=oX=:333444525333255253221<++-25",
"3:oo34wrttrttrrrrrrrrrrre63:%o360errerereeererrrreq33:@@36qerrrtrrrrrrreeerre72:@@2wr",
"3;%o37rrwww0763344333333333:o%3rttrew0866665656664433=oo3wrrtrwwq08666666666622:o#4r0",
"3;%o36tr4333333:3333333333::%%3wrr0333333333333:33333:%%3wtr06331113231222221221%%4e3",
"3;oo3qte33;3333333:::3333:3:#%3wtq3:333:333:3:31:3333=%o3rrw33332222322222222211##403",
"3=%o3qtw3333333:333333:33:3:#o3wt7:3333:3:3:333:33333:%%3rr733332222222222222221o#483",
"3<#o:0t03333:333;33333:3:33:%#4er633:3333131:3333:3:3=o%3rr43333222231312222222<%%403",
"3=@@36y633;333:33333:3:333::##3qr6:333:313:333:333333:%%3wr33;33222213112222222:o%333",
":&@o230333333:33333333333:3*o%3663333:3:3:333:3::3333*o%375333;3111131132222221,o@333",
"&%oX%====*****=;*&*=***&==&%oo;3:::;:;:::::;;:::=:=:&%oo33=3==3=:::::::::::::<,$oo===",
"oXX XXooooooooooooooooooooooX Xo#o#@#@#o###o###@oo%o%oXXooo%#o##@@#@#@#@#@#@###ooXooo",
"***&*=*&*&&=*&oXXo#%%%o&%%##%%###%#%##%#XX o###&*#%%%o%%#%%%##%%$#X X#%&%%%%%%%**&&&&",
"77667664776633=oo33334644444444434444333=Xo33667700877664667774433& @1355600707767767",
"ttrrrreqeeew63=o=368rrrrtrtrrreeerereq4::o=40ertttrrrrrqwweeerew31*o*16ertttrrrrerrer",
"443333333333:3=o=3yrrrqqq066664463436433:o=4rrrww77433333333333313*o*3ettre0444333333",
"333:333333333:=o=4rrr733333:33:3333333:33o=4trw33333:3333:33333331*o*3etr6333:3333333",
"333333::333:33&o*4ry7333333333::3:3:3:33:o=7rt33:3333:333:3:3:3313*o*3et011333:3:33:3",
"3::3:3333333:3*o*4rr43333::3:333333:333::o=6rr3333:333::333:333:31*+&3et6131:333:33:3",
"3333:333333333=o=6rr33333333:333:33:333:=o=4ee333333=33:3::33:3333*o%3ey63333:333;333",
"33;3333333;333*o=4re3:33::3333:3:3333:333o=3rq333;;33333:33::33:33*o*30e4333333:33333",
"3;333=33:3333=%o*376333333333333333333:3*o=363333333333333333::33=%o%334333333333333=",
"=*======*&==&%%Xo====*<<=*;==*=:=;=====%%oo=33=:=3;=3==3=:=::=::=%%Xo===*==*=**=****=",
"oooooooooooooooooooooooooo#ooooooo%ooo%ooXXo#oo#oooo%ooo#oo@@o@@ooooXoooooooooooooooo",
"*%XX%=;;=3::33333=*=**=*&&&&oX%**&&*&&&&=3**%%*=&&*=&%XXo%==%**%======;:**=:=:*%XX%:=",
"33oo338wwe0weew0ewqwwwee0433oo33660q0000qq00770760743:oo33600060000066006700633:oo366",
"3=#o30ryrrreew06000000007333%%30rrttttreeeeeww00wwq63:#%30rttrrrrrreew00wwewq633o%4er",
"3=#o30rr0643333:333:3:33:3::o%3rtrrq334333333333:33:3;o#3erre0763333333:333:3:::%%4w3",
"3=@@37re3:3333:3:33::33:333;o%3ete4333333333:3:333:33;%#4rye43333:3333333:33:33;o%6q3",
"3=@@3qtq3::3333:3333333:3:3:%%3et7333;33:3333::3:3:33;%#3rr733333::3:33::3:3333:o%60:",
"3=#o3qt0:33:33333::3::333:3:%o3wr33333::33:33:33:3333;o#4rr6;3333:333::3:333:33=o%403",
"3=%o30r73333;3333::3333::33:%%4wr6:33:333;:33:3:33:33;##3rw33:3::33:3;33333:3:3:%%343",
"3=#o36e433:333:333333:3333:=oo3qe33333333333:3:3:33:3;@%3wq333333::333333:333:3=o%333",
"*%oo=3333=;3;33:=33:33=:::=*%o334333:333333333:::::3;%%o3333:3::3333333333:333<&oo33:",
"%oXXo#%%######%%%o%%o%o%%#%ooX%==*&&%&&*%&&*%*******%#oo%=*%***&*&&*%%*&&*&%*&%$oX%%%",
"oo%o%oo%ooo%oooXXoooooo#oo%ooooooooooooooXooooooooooooXoXoooooooooXXXooooooooooXXXooX",
"33333443343333=Xo=3333334334333333333:3=*XX*<<:<:=::33;;;;=33==3:;#XX*;:::::1:::::=:=",
"rrereeeqerew333o%37qeererrwrrewqqwrr0733<o%347qqqq7000077700qq763:=X%337qqwwewqqqqqqq",
"006666636666333o*7yyttrrwqq007040777663:<o=7rrrryrreeew0wwwwwwq733:o=37rtttrrre0wqqq0",
"333=33:33:333::o&8ryq43333:3:33:333::3:3<o=0yrrw06333333:331333333=o*3wyte7543333:333",
"3333:33::3:3333o*8rr43333333:3:333333333<o=0rr7333:333133:3333:3:3;o*3wre4:33333333:3",
"333333:3333=333o*8rw333333::3333333:3:333o=0rw33313:3311:33::33:33;o*3wyq3::33::333:3",
"33=3:33:3:33333o*0r03333:3333::3::333:33;o=0r0:333133113:33:3:33:3;o*3wy7333:333::333",
":3333::3:33:33:o*7rq333333333333333333:3=o=0rq3:3::3:33:3:3:33:322=o*3er71222222333:3",
"333333333:333:=o*4w433333333;3333;333:3=&o=7r633:33333:3333::33:22*o&37e322222223:333",
"=:3===3:=::;==%oo=<=*===%&**&***&****=&%#o*343:3::3:::33::33::::1,$X&:231111212::3:3:",
"oo%o%oo%@#@@#@oXXooooooo#o#o%o%oo#o%@o%ooXX&&%%%&%&%%%%%%%%%*%%*%$+ o#&%>%&&%%&&%%%%%",
"%oXXo%o%%%%%#*****o%%%%%%%%ooXXoo%%%%%o%#o%o%oo%@o@@oooXooo#@o@@+@@#@@@+o@@@@@@+XXo#o",
"3:oX=33446663443646434363333oX*333333333333333333333::oo;333333342544421222233:;oo=33",
"33oo34weerryyrrrrrrrrrrr0433%o347wrrrrweererwweeee06;3%@336werwerrryryeeeeyyre6;@#36w",
"33%o3qyyyewq0766664444443333%%30trerrew000877777766433%@33errreee99777777777653:@%3qw",
"33#o30rr633333:3::3::3:3:3::%#36trw6433:3:3333=33::333##33wrr033333:33:3::33:33=o%377",
"3:%#37re3:33:33:33333:3:3:33%@30rr43333::33:3;33:3:3::%#33wrw3:333:33::3333::33:o%303",
"33oo3wtq:3333333333::33;::3:%#30rq333333333:333333:33:##33rt7333::333;333:3:333:o%303",
"3=#o3qr033::3::3::33333333::%%30r6::3::3::3333;3:33:3:##33wr733:333:333:3:333::=o%303",
"3:#o37r6:333:33333333333:333##36r733333:33333:3333:31:%#330r333333333;333:333:3:%%333",
":=oo330333:333:33:333;3333;*o#34q333::333:333333::333=@#33773:33:3333333333:33:*o%333",
"%%oX%*==***=&***%&=*&**=%*%%oo=;::::;;:;=3=;*3=3=:=:*%oo=::;==3:===;=:*=3:::===%oo**&",
"ooXXXooooooooooooooooooooooXXoooo#oo#o@oooo%oooo@@@@ooXXooo%oooo@o#o##ooooo#ooooXXXoo",
"====:======;==#XXo===;====:====*=*%**&&*$XXo$%%%%*%%=%%&%&%%*%%*%%ooXo%##%%%*%%%%%%%%",
"88000777000633:oo33446666466555455456331:oo<33474776076666666666333oo3333333434333343",
"rreewwq7wqwq33:o%30rrrrrettyrrrrrrwqee53:#$:4ertryrrrre0rrrwwew763;o%360eeqerreweereq",
"33333333333333:#%3rrtrw006666444443343332@$37ttre007643334333333333#*3wtrrrreq0400776",
"3333:33:133313:#%4tr043333;3333:3:33133::#$37yy943::3::3333:3333333o%3wtrq3333:333:33",
"33:3:33:31:331:#o6tr3333;33:3333:33:31331@&:0yr43333:3:3333:3;=3333%%3ete33:333333:33",
"::333333::3311:o%6tr333=3333:3:3:33313:3:@#37yw3333:33:3333333;333=o%30t033333::3:333",
"333:3::3333:31:#%4rr333333:333:333::3133:##37yq33333:33:33:33333333o%3we7333:333333:3",
"33333113132222<@%3rq22222222222233333:33*#%36y933:33333333333333333o&3wr3333:333::333",
"::3<<31112122<>#o37411111122<22:33=33:3=%oo3342<:::3=3=3=3=3::=3:=*o%37033333333333:3",
"&*******&*&*&%$Xoo*&&&&>%&&&%&%%&%%%%%%%#Xo%&&%%%%&&%%%%%%&&%%%&%%ooo=;=**;=&**=;:**=",
"ooXoooooooooooXXoXoooooXoooXoooooooooooooXXoo#oo@o@@oooooo%ooooooooXXooooo#oooooooooo",
"XXXXOOOXXOOX.OuuuuXO+O+.O.+.X+O+XXXoXoXXuuuXXX XXXXXXXXXoXXXXX XXXXuuXXXoXXXXXXXXXXXX"
};
