/* XPM */
static char *_b1573c6a01a4247f45f3498aa3cfcf5PnOPyyfKSet6x6Oy[] = {
/* columns rows colors chars-per-pixel */
"50 50 178 2 ",
"   c None",
".  c #B55400",
"X  c #BC5B00",
"o  c #C25901",
"O  c #C85E00",
"+  c #CC6400",
"@  c #C46C02",
"#  c #C77300",
"$  c #C9710C",
"%  c #D37700",
"&  c #D07C01",
"*  c #DD7D04",
"=  c #C77714",
"-  c #CC7C1A",
";  c #C77B2C",
":  c #D48402",
">  c #DD8600",
",  c #DC8A00",
"<  c #D2840F",
"1  c #D88209",
"2  c #D79200",
"3  c #DE9400",
"4  c #D7861B",
"5  c #D68C1D",
"6  c #E28400",
"7  c #E48C00",
"8  c #E88900",
"9  c #E59500",
"0  c #EF9400",
"q  c #E39A00",
"w  c #EF9B00",
"e  c #F09500",
"r  c #F19D00",
"t  c #DFAA00",
"y  c #E4A300",
"u  c #EFA300",
"i  c #EFAB00",
"p  c #F5A400",
"a  c #F5AC00",
"s  c #F8AF00",
"d  c #F1AE0C",
"f  c #E5B600",
"g  c #EFB200",
"h  c #E5BD00",
"j  c #F5B300",
"k  c #F8B200",
"l  c #F6BB00",
"z  c #F9BC00",
"x  c #D39224",
"c  c #D29432",
"v  c #DCA23D",
"b  c #DEAA3B",
"n  c #DFB63D",
"m  c #E0B537",
"M  c #E3BF33",
"N  c #EFC400",
"B  c #EBCA00",
"V  c #F6C300",
"C  c #FBC400",
"Z  c #F6CA00",
"A  c #FFCC00",
"S  c #ECD200",
"D  c #EED909",
"F  c #F6D400",
"G  c #FFD600",
"H  c #FED600",
"J  c #FED500",
"K  c #FED300",
"L  c #F7D800",
"P  c #F6D900",
"I  c #F5DB00",
"U  c #F8D800",
"Y  c #FBD900",
"T  c #F9DB00",
"R  c #FDD900",
"E  c #FED800",
"W  c #FFD900",
"Q  c #FFD800",
"!  c #FDDB00",
"~  c #FFDA00",
"^  c #FFDB00",
"/  c #FADD00",
"(  c #FFDC00",
")  c #FDDF00",
"_  c #FFDE00",
"`  c #FFDF00",
"'  c #FEDB00",
"]  c #EBD119",
"[  c #F4E500",
"{  c #F9E300",
"}  c #FAE300",
"|  c #FDE000",
" . c #FFE000",
".. c #FEE100",
"X. c #FFE100",
"o. c #FEE000",
"O. c #FDE300",
"+. c #FFE200",
"@. c #FFE300",
"#. c #FAE500",
"$. c #FAE700",
"%. c #FDE500",
"&. c #FFE400",
"*. c #FFE500",
"=. c #FFE600",
"-. c #FCE700",
";. c #FFE300",
":. c #FAEA00",
">. c #FDE800",
",. c #FFE800",
"<. c #FFE900",
"1. c #FFEA00",
"2. c #FEEB00",
"3. c #FCEB00",
"4. c #FBED00",
"5. c #FBEF00",
"6. c #FDED00",
"7. c #FFEC00",
"8. c #FFED00",
"9. c #FEED00",
"0. c #FDEF00",
"q. c #FFEE00",
"w. c #FEEF00",
"e. c #FFED00",
"r. c #F9F300",
"t. c #FDF000",
"y. c #FFF000",
"u. c #FFF100",
"i. c #FFF200",
"p. c #FFF300",
"a. c #FFF400",
"s. c #FFF500",
"d. c #FEF500",
"f. c #FDF700",
"g. c #FDF600",
"h. c #FFF700",
"j. c #FEF600",
"k. c #FDF400",
"l. c #FEF200",
"z. c #FFF800",
"x. c #FEF900",
"c. c #FFF900",
"v. c #FEFA00",
"b. c #FFFA00",
"n. c #FFFB00",
"m. c #FEFB00",
"M. c #FCF800",
"N. c #FFFC00",
"B. c #FFFD00",
"V. c #FFFE00",
"C. c yellow",
"Z. c #FDFC00",
"A. c #FFFA00",
"S. c #FDF40C",
"D. c #FFFF0C",
"F. c #FCF31F",
"G. c #E7C927",
"H. c #EBD139",
"J. c #EDD83D",
"K. c #FEFE22",
"L. c #FCF332",
"P. c #FEFE36",
"I. c #FEFE38",
"U. c #DAAA45",
"Y. c #E0B94D",
"T. c #EEDA4E",
"R. c #EEDA50",
"E. c #EBD159",
"W. c #F6EB45",
"Q. c #FCF345",
"!. c #F9F248",
"~. c #FEFE4D",
"^. c #F9F35C",
"/. c #EFDC65",
"(. c #F7E863",
"). c #F7EF6D",
"_. c #FEFF63",
"`. c #FEFF78",
/* pixels */
"                                        @.@.*.*.1.1.0.u.u.j.                                        ",
"                                  R R ) @.@.@.@.} *.1.1.0.u.j.j.c.                                  ",
"                            K K H H H A Z C l C V V V Z Z T } 0.j.c.N.N.                            ",
"                        A A A K C z j j a a j k j j j l l l V Z F $.j.c.N.N.                        ",
"                      K K A C k a a p s a a s k k j j l l l l l V V F $.c.N.N.                      ",
"                  R R H C k p p p p s p a s a s j j j k k l j l l l l V F 4.N.N.N.                  ",
"                @.) H C k p p p p p p s p a s s a j j j j j l l l l l V V Z $.c.N.N.                ",
"              *.@.R C s a a p p p p p p p s p a a k j j k l j k l l l l l V V / c.N.N.              ",
"            1.1.) C j a a a a p p p p p p a a a u P z j j j j j l l l l l l V V P M.N.N.            ",
"          0.0.*.Z k j j s a a a p p p p p p p y B N.0.l a j k l j l l l l l l V V P c.N.N.          ",
"          u.0.F l k j j j a a a s p p p p p w f Z.N.N.$.k j j j j k j l z l l l V V / c.N.          ",
"        j.j.) l l l j j j k a s s p s p p r y r.N.N.N.N./ k a j j j l l l l l V V l V :.N.N.        ",
"      N.c.0.Z l l l j l k j j a s p s p p q [ N.N.N.N.N.N.F s j k j j k k l l l l V l Z u.N.N.      ",
"      N.c.T V V l l l l j j j k s s s p q S N.N.N.N.N.N.N.N.Z a j j j j l l j l l l V V P c.N.      ",
"    j.c.t.Z V V V l l l l l j j j j s 0 h N.N.N.N.N.N.N.N.N.j.C a j j j j j l l l l l l V 4.N.N.    ",
"    u.j.P V V V V l l l l k j j j j u y c.N.N.N.N.N.N.N.N.N.N.0.z s j j k j j l l l l l l F c.c.    ",
"    0.*.V V Z V V l V l l l l k j l N :.c.j.c.c.j.c.c.c.j.c.c.j.0.H l k j j k j l l l l V V 4.c.v.  ",
"  *.1.F l V V V C V V l l l z Z T 1.u.u.u.u.u.u.u.0.0.0.u.0.u.u.u.u.0.) Z z l k j l k l l l T j.v.  ",
"  ) @.V l l V V V Z V V Z H ) *.1.*.1.1.*.1.1.1.1.*.1.1.1.1.1.*.*.*.1.1.0.*.R Z C l l l l l V 4.k.  ",
"  R H l j l l l V Z F H @.@.@.@.@.@.@.@.@.@.@.@.@.@.@.) ) ) @.@.@.) @.@.@.@.@.@.) R V a i a g [ k.  ",
"K H A j k j l 9 2 F ) R R R R R R R R R R R R R R R R R R H R R R R R R R H R R R R y 9 u i i F k.k.",
"A K C a j j l 3 . y H K K H H K K K K K K K K K K K K A K K K K K A K A K K K K H j : u u i i Z u.u.",
"A A k a a a j j : . j A A A A A A A A A A A A A A A A A A A A A A A A A A A A A C , w u u u i l q.u.",
"A A k p a a j j g @ @ C A A A A A A A A A A A A A A A A A A A A A A A A A A A A 9 7 u u u u u l &.q.",
"A A s p p s s s k u X : Z A A A A A A A A A A A A A A A A A A A A A A A A A A a , w w u u u u j &.q.",
"A A s r p p a a j j q . q K A A A A A A A A A A A A A A A A A A A A A A A A C , 0 w w u w u u g } 1.",
"A A s p p p p a a j j : X l A A A A A A A A A A A A A A A A A A A A A A A A q 7 w w w w u u u g  .1.",
"A A k p p p p p a a a j @ # Z A A A A A A A A A A A A A A A A A A A A A A i 6 e e w w w w w u j  .&.",
"A A k p p p p p p a a a u . 3 A A A A A A A A A A A A A A A A K A A K A A 9 0 0 w w e w w r w l  .&.",
"A A C p p r p p p p p p p % X A H H H H H H H H R H H H H H H H R H H R K w 0 e 0 w 0 w w w u l  . .",
"  A C p p r r r e 0 0 w w 9 X F @.@.@.@.@.@.@.@.@.@.@.@.@.@.@.@.@.@.@.*.) p 0 0 e w e w 0 w u Z _   ",
"  A A p e e e e 0 0 0 0 w 7 X F 0.1.0.0.0.0.1.0.0.0.0.0.0.u.0.0.0.0.0.0.$.u w 0 0 0 0 0 w w u A _   ",
"  A A a 0 0 0 0 0 0 e e e 7 X I N.c.c.c.c.c.c.c.c.c.c.c.v.v.v.v.v.D.j.c.t.i 0 w 0 0 e 0 w e a J W   ",
"  A A l 0 0 0 0 0 0 e 8 e 0 X D D.D.D.D.D.D.D.D.D.D.D.D.D.D.D.D.D.D.D.D.S.p w w w 0 0 0 0 w l J W   ",
"    A A p 0 0 0 0 0 0 0 e 0 X ] F.F.F.F.K.F.K.K.K.K.K.K.K.K.K.K.K.K.K.K.K.u w w w 0 0 0 0 p A J     ",
"    A A j 0 0 0 0 0 0 0 e 8 o G.P.P.P.P.P.P.P.P.P.I.I.I.I.I.I.I.I.I.I.Q.L.d u w w w w 0 0 j A K     ",
"      A A p 0 0 0 0 0 0 e 8 o G.~.~.~.~.~.~.~.~.W.H.M J.!.~.~.~.~.~.~.~.!.d p w w w w w u C A       ",
"      A A l w 0 0 0 0 0 0 0 o Y._._.^._.^.T.n x < : & $ = x n R.(._._._.^.d u u w w w w V K K       ",
"        A A a 0 0 0 0 0 e e O U.`.).E.b 5 : , w u i g i y 2 & $ - c Y./.(.d u u u u w l K K         ",
"          A A p 0 0 0 e e e O ; v 4 1 6 0 r p u p i i i g g j g y 3 & $ - p u u u u j J W           ",
"          A A C r 0 0 0 0 0 6 * 8 e e e 0 0 w w u u u i i g g g g i g i y u u u u j Y _ W           ",
"            A A C r 0 0 e 0 e e e e e e 0 0 w r u p u i i i g g g g g i a i i i g F  . .            ",
"              A A C p 0 e e e 0 8 e 0 0 0 e 0 w w u u u i i g g g g g g i i i N } 1.&.              ",
"                A A C a e 8 0 0 e 0 0 0 0 0 0 w w w w u u i i i g g g g g g Z 1.q.1.                ",
"                  A A A z p 0 0 0 0 0 0 8 0 0 0 0 w w w u u i i g i g g V [ u.u.u.                  ",
"                      A A A j p 0 0 e 0 e 0 0 0 0 w w w u u u u i g V [ k.v.v.                      ",
"                        A A A C l a r 0 e e 0 0 0 0 w w w w u j V F 4.v.V.V.                        ",
"                            A A A A C l j p p u w w p p j l Z R &.q.u.k.                            ",
"                                A A A A A A A C C C A A A H R )  .1.                                ",
"                                        A A A A A A A A A K                                         "
};
