/* XPM */
static char *_75c617f264f43c985c6777fe5baa69f26lXeE8aSaJjXqIp[] = {
/* columns rows colors chars-per-pixel */
"50 50 132 2 ",
"   c #5F3F35",
".  c #603E37",
"X  c #55413A",
"o  c #5E4138",
"O  c #634137",
"+  c #5A4E47",
"@  c #5C4D4A",
"#  c #5E514B",
"$  c #634A41",
"%  c #6A4C45",
"&  c #754E41",
"*  c #66564E",
"=  c #6C574F",
"-  c #6C584F",
";  c #765646",
":  c #7B5345",
">  c #75554C",
",  c #79564E",
"<  c #6A5751",
"1  c #6E5A54",
"2  c #6F5E58",
"3  c #7C5751",
"4  c #7D5B53",
"5  c #6F615C",
"6  c #7B6255",
"7  c #72625D",
"8  c #78645C",
"9  c #5E6364",
"0  c #656B6C",
"q  c #6A6F6F",
"w  c #706560",
"e  c #746B65",
"r  c #7B6B65",
"t  c #7C716A",
"y  c #6B7172",
"u  c #7B7975",
"i  c #717878",
"p  c #825749",
"a  c #855C4F",
"s  c #815C55",
"d  c #836356",
"f  c #8B6557",
"g  c #8D6857",
"h  c #856559",
"j  c #8C675A",
"k  c #84695D",
"l  c #8E695C",
"z  c #916B5E",
"x  c #816661",
"c  c #856A61",
"v  c #8E6B60",
"b  c #926D61",
"n  c #937064",
"m  c #877772",
"M  c #877974",
"N  c #8B7D75",
"B  c #8B7F78",
"V  c #8A8076",
"C  c #818178",
"Z  c #8D827A",
"A  c #90847D",
"S  c #898581",
"D  c #8A8B84",
"F  c #888788",
"G  c #8E8D8A",
"H  c #968C84",
"J  c #918E89",
"K  c #988F8A",
"L  c #8E908A",
"P  c #979184",
"I  c #91938D",
"U  c #9B948D",
"Y  c #9D988F",
"T  c #8F8E90",
"R  c #949593",
"E  c #9A9690",
"W  c #969A95",
"Q  c #9D9991",
"!  c #9E9891",
"~  c #9F9992",
"^  c #9F9B96",
"/  c #9E9C97",
"(  c #9A9C9B",
")  c #9C9F9C",
"_  c #A19B91",
"`  c #A29D92",
"'  c #A09B95",
"]  c #A09C95",
"[  c #A19C97",
"{  c #A19E9B",
"}  c #9BA09C",
"|  c #9DA19D",
" . c #9FA39F",
".. c #A4A19C",
"X. c #A9A39D",
"o. c #A19FA1",
"O. c #9DA3A1",
"+. c #9FA5A2",
"@. c #A3A2A4",
"#. c #A1A6A5",
"$. c #AAA6A3",
"%. c #ACA9A5",
"&. c #ACABA7",
"*. c #AEAAA7",
"=. c #A5A6A9",
"-. c #ADABA8",
";. c #AFADA9",
":. c #AAABAF",
">. c #ADABAC",
",. c #AFAEAC",
"<. c #B0ACA6",
"1. c #B0ADA9",
"2. c #B1AEAB",
"3. c #B0AEAC",
"4. c #B1AFAC",
"5. c #B3B1AE",
"6. c #B3B1AF",
"7. c #B3B3AF",
"8. c #ABAEB2",
"9. c #B0AFB2",
"0. c #AEB1B3",
"q. c #AFB2B2",
"w. c #AFB1B5",
"e. c #B1B0B0",
"r. c #B4B3B0",
"t. c #B6B4B3",
"y. c #B2B3B4",
"u. c #B0B4B4",
"i. c #B2B5B4",
"p. c #B8B7B4",
"a. c #B0B4B8",
"s. c #B4B6B8",
/* pixels */
"e.,./ / [ [ [ [ ` ` ` ..` ..} Y I P Y Y Y Y P U P P U E E Q Q Q E Q Q _ _ _ Q ' ' ' ' { / { { X.e.8.",
"3.;.| e 8 k k k k g k k k k k k k k k 8 k r k k k k k k k k k k k k k k k x c k k k c k c x h S q.8.",
"6.;.#.w , k j j z z z g g g z z l l l l l l l g j j f f l v l l l z l l j l l l l v l l j v k V q.w.",
"r.*.O.w 3 l l l z g z z g z z z v z z l l l l l l l j l l v v l v l b l b j v l v l l l l v j Z w.q.",
"e.;.+.w 3 l l l z z z g g z z g z l z l l l l z j v l z v v v z v l z l l l v v v l l l v l f N w.w.",
"r.;.+.w 3 c v l g z g z z z g z l z g z l z l l z v z j z v z z l z l l l l b b v v b l l v j m i.w.",
"3.3.+.w 3 j l l g z z z z z z z z l z g z z l z z z z z v l v z z l z l l v v l l v z v b l l N i.a.",
"5.3.O.w 3 l l l z g z z z z z z z z l z g z z l z j z z v z v z z l z z v l l z z v z l v l k m i.a.",
"*...) 5 4 l z l l z z l z z z z z l z z z z j z z z z z z z l z z v b z z z l z z z z j v v j m i.:.",
"5.;.| 7 4 l z z b z b b z z z z z z z z j z z z z j z z z b b b b z z z z z z b v z z z v b h m e.+.",
"r.6.+.7 4 l b z z b b z z z z b g z z z j z z z z z z z v b v b v z z z z z b z b j z z v v h m y.i.",
"p.r.| 2 4 z z b z z z z z z z b z z j z z z z z z l z z z b b l z z b b b v b z b b v b b b b S r.i.",
"p.t.@.2 4 l z z b z z z z z b z z z j z z j z z j z j z l v l v z z v b b b b b b b b b n n v B a.s.",
"t.t.| 2 4 l z z b z b b z z b z z z z j z z j j v z j z v l z v z b z b b b b b b b b b b n v M p.s.",
"p.r.| 2 4 l z b n n z z z z z z z z z z z z z z z b z z b z z v b z b b b b b b b b b b b n v N t.p.",
"p.t.| 2 4 z b z b z z b b n n z z z z z z z b z z z z b b b z b b b b b b b b b b b b b b b v M i.8.",
"t.r.{ p g z b b b b b b z b b b z z z z b b b b z z z b z z z z z b b b b b b b b b b b b n v B r.8.",
"t.6.{ p p z z z b b b b b b b b z z b z b b b b z z z z z z z z z b z b b b b b b b b b b b v B 9.r.",
"t.t.X.p a z z b b b b b b b b b z b b b b b z b z z z z z b b z z z z z z b b b b b b b n n v V t.t.",
"t.t.X.p a z z z b b b b b b b b b b b b b b b b z z z z z z b z b z z z z b b z b b b n b b x V t.y.",
";.*.' 3 g z z z b b b b b b b b b b b b b b z z z z z z z z z z j b b z z z z z b b b b n b s N t.y.",
"*.X.( 1 p z z z b b b b b b b b b b b b b b b b z z z z z z z z z z b z g z z z b b b b b b j N 9.( ",
"p.9.( 1 g z b b b b b b z b b b z b z b b b b z z z z z z z z z b z z z b b v z b b b b b v j A r.:.",
"p.9.( 1 g b b b b b b b z b b b z b b z b b b b b b z z z b b z z z z z b z v z b n N m m x s A r.9.",
"p.r.W 1 s b b b b z z z b b z z b z b z b b z b b b z z z z b z z z z z z z z z v M y 9 9 * % e 3.8.",
"p.t.W 1 s b b b z z z z b b b z z z z b b b b z z b b b z b b b n z b z z z l f j u i y q @ . + o.3.",
"p.e.E 1 s z z z z z b b b b b b b b z b b b b z b b z b b b b b n z z b l c r r 5 e 0 y 0 @ O e >.=.",
"p.r.W 1 s z b b b b b b b b b b b b b b z b b b b z b z b b b b n v b l v f 4 > < O X       . t $.o.",
"t.t.R 1 s z b b b z z b b b b b b b z b b z b z b z z z z b z b n l z b l l f 4 p : : & & & & t W F ",
"t.9.W 1 s g z b b z z b b b b z b z z b z b b b b b z z z b b b b b b l v z l l j j a f f j 3 Z >.T ",
"2.2.R 1 a z z z z z z z z z b z z z z z z b b z z b z z b z z b b l b b z z v v v b b b j j s A 9.[ ",
"*.$.R 1 a z z z z z z z z z z z z z z z b z z z z z z z z z z b b z z l z v b b v b b b b z f A 9.8.",
"r.r.R 1 s l z z z z z z z z z z z z z z z z z z z z z z z z z z b z z z z z v z z z v b b b s H 9.8.",
"5.3.R 1 4 z z z z z z g z z z z z z z z z z z z z z z z z z z z z z z z b l z z z v v l v v d H 3.8.",
"r.2.R 1 s l l z z z z z z z z z g z z z z z z z z z z z z z z z b j z j j z j z z l v b v v d H r.;.",
"5.2.I = 4 j z z z z z z z z z z z z z z z z z z z j z z z z j z z z z z z z z b z z z z b b f U 3.=.",
"5.2.I = s l l z g z z g g z g z z z z z z z z j j z z z z j j z j z z j z z z j l l z l l b k U 9.=.",
"5.2.I = s j l z z z z z z z z z j z f z f z f j j z z z z z z z z g z j z j j z l l z l v b d U 8.) ",
"<.*.I = 3 j l l l l l z l z g z z z z j j g j j z j z j j j z z z z g z j j z z z l l z l z k U 3.o.",
"$.$.I = 3 g j z j z l z l l z g f z g z z f f j j z j z j z z j j j z j j z z j l l l l l z h E 9.@.",
";.2.I < 3 f j l l l z l j z j l l g z z g j g z l l z l l l g l z g j j j l l l l l j l l v d E 3.@.",
"3.;.J < 3 j j l j l j l z j l l z j g g g z j z z l l l l l l g j g j j l j l j j l l l l l d E 9.o.",
"6.<.I < 3 k j l z z z l j z l j z g j l z z j g l l l l l g l l g z j l j l l g j j j z v v h Q 9.o.",
"2.*.G < 3 f j l j j l l z g g z l j z l j z z j l l l l l l l j j j j j j g l f j l l z l l h Q 8.( ",
"<.%.G = > f f j j z l j j b j j l l g g z j l l g z l g l g g j g j z j l l l g l j l l l j 6 Q ,.( ",
"2.*.L * , f j j j j l l j j z j l l l l g z l l l g l l g l g j j j j j f l j j j k l l l l h / >.G ",
"%.*.L * > h j f j j j l j l j l j l l l l j g l j l g l j g g g f f j j l j l j j l j l l l h U ;.G ",
"$.%.D * > h j f j j j j j j l j g g g g l l l g l g l l l g g g g z g j j j h f l f j l k l h P ^ u ",
"Q / D * > h h f j j j g j j j j k g g j g g j j l g l l l l l l z j j j j f j l j j f h j j 6 P X.S ",
"U U C # $ 4 4 6 4 d 6 h d d d d d d d d ; ; d 6 d d h d h h d h j a f f h h h k d d h h h d 6 P $.G "
};
