/* XPM */
static char *ccdd9a741c164c3e8f5f86cba0b58397meXvK416s0QW3J0S[] = {
/* columns rows colors chars-per-pixel */
"50 50 193 2 ",
"   c None",
".  c #000001",
"X  c #060608",
"o  c #0B0A0B",
"O  c #080809",
"+  c #110F0F",
"@  c #0F0E10",
"#  c #100F12",
"$  c #191616",
"%  c #1C1B1C",
"&  c #171515",
"*  c #231D1D",
"=  c #29201D",
"-  c #1E2934",
";  c #1D2D3C",
":  c #1D2732",
">  c #1F272F",
",  c #252223",
"<  c #2A2424",
"1  c #292729",
"2  c #2C2A2B",
"3  c #27272B",
"4  c #332523",
"5  c #352A24",
"6  c #3C2C22",
"7  c #312D2E",
"8  c #232C37",
"9  c #2C2D33",
"0  c #232E39",
"q  c #28313C",
"w  c #343234",
"e  c #3A3334",
"r  c #3C3A3C",
"t  c #4E351E",
"y  c #54391E",
"u  c #583B1F",
"i  c #422E1B",
"p  c #482C25",
"a  c #562F25",
"s  c #443528",
"d  c #5C3E22",
"f  c #403C3D",
"g  c #433835",
"h  c #5A3B33",
"j  c #663523",
"k  c #793823",
"l  c #61401F",
"z  c #734B1F",
"x  c #7D501F",
"c  c #654320",
"v  c #694723",
"b  c #754C20",
"n  c #1C3143",
"m  c #16344B",
"M  c #183348",
"N  c #173C58",
"B  c #223343",
"V  c #2C3B4A",
"C  c #1E415F",
"Z  c #3B4A59",
"A  c #1C4363",
"S  c #0B4A76",
"D  c #0D4D79",
"F  c #1B4C73",
"G  c #1D547F",
"H  c #295376",
"J  c #3F5C75",
"K  c #4C4B4D",
"L  c #464343",
"P  c #4C4C50",
"I  c #545355",
"U  c #5B5A5D",
"Y  c #595759",
"T  c #534F4F",
"R  c #655D5C",
"E  c #4E5B67",
"W  c #605F60",
"Q  c #4B657A",
"!  c #626364",
"~  c #65666A",
"^  c #696A6C",
"/  c #727274",
"(  c #7A7B7E",
")  c #76777A",
"_  c #833B23",
"`  c #883B22",
"'  c #953F24",
"]  c #8D5B1E",
"[  c #82561F",
"{  c #945E1F",
"}  c #B3741D",
"|  c #AA751E",
" . c #9B4124",
".. c #8C5720",
"X. c #AC4523",
"o. c #A34425",
"O. c #B74824",
"+. c #C7791E",
"@. c #C64D25",
"#. c #CE5126",
"$. c #D25025",
"%. c #DC5327",
"&. c #EE5928",
"*. c #E55827",
"=. c #F25B28",
"-. c #F35F27",
";. c #C77921",
":. c #F36227",
">. c #F36B25",
",. c #F37324",
"<. c #F47C22",
"1. c #EE7423",
"2. c #C6881C",
"3. c #D3961B",
"4. c #DD861E",
"5. c #EB8D1F",
"6. c #F68E1F",
"7. c #F6921E",
"8. c #F69C1D",
"9. c #F9991E",
"0. c #F9A21C",
"q. c #FAAA1B",
"w. c #F2A91B",
"e. c #EFB619",
"r. c #FBB51A",
"t. c #FDBC19",
"y. c #F3B819",
"u. c #E9A21B",
"i. c #DD8521",
"p. c #E88A20",
"a. c #F58221",
"s. c #F58920",
"d. c #F69320",
"f. c #FB9622",
"g. c #FECB17",
"h. c #FDC318",
"j. c #FBC618",
"k. c #FFD316",
"l. c #125486",
"z. c #16588A",
"x. c #135D94",
"c. c #185F95",
"v. c #0D578C",
"b. c #196299",
"n. c #216599",
"m. c #166CAD",
"M. c #1B6DAC",
"N. c #1768A6",
"B. c #1A75BC",
"V. c #1C74B8",
"C. c #186EB0",
"Z. c #2572AE",
"A. c #2E7BB7",
"S. c #496780",
"D. c #7E7F82",
"F. c #627789",
"G. c #1B78C0",
"H. c #247DC1",
"J. c #807E80",
"K. c #7F8083",
"L. c #77838F",
"P. c #70879A",
"I. c #4886B7",
"U. c #7793AA",
"Y. c #2C81C3",
"T. c #3887C5",
"R. c #4993CC",
"E. c #73ABD6",
"W. c #818285",
"Q. c #8A8A8C",
"!. c #868789",
"~. c #918F8F",
"^. c #999A9C",
"/. c #939395",
"(. c #8F9093",
"). c #879BAB",
"_. c #9E9FA2",
"`. c #8FA8BD",
"'. c #A3A3A5",
"]. c #B3B2B3",
"[. c #B7B8B9",
"{. c #A2ABB2",
"}. c #8EBADC",
"|. c #B5BBC0",
" X c #98C2E3",
".X c #BFD8EC",
"XX c #C8C8C9",
"oX c #D4D4D4",
"OX c #DBDBDC",
"+X c #C6D3DD",
"@X c #DFE5EA",
"#X c #E5E5E6",
"$X c #FDFDFD",
/* pixels */
"                                                                                                    ",
"                                                                                                    ",
"                                                                                                    ",
"                                          , , = , 7 2 <                                             ",
"                                      * & & 1 % o w U ! K w <                                       ",
"                                  , & = ~ ].XXI . . % U W.) U e ,                                   ",
"                                * $ ! oX$XXXK X . . . o P K.W.) K <                                 ",
"                              % o /.$X#X/ & . . . . . . O I W.W.W.U 2                               ",
"                            * o   $X].w . . . . . . . . . o ^ W.K.W.Y 2                             ",
"                          * o     , o . . . . . . . . . . . 3 D.W.W.^.! <                           ",
"                        , + X   X . . . . . . . . . . . . . X Y W.W.'.[.L                           ",
"                        % . . . . . . . . . . . . . . . . . . 3 K.W.!.XX^.w                         ",
"                      , o . . . . . . . . . . . . . . . . . . o ^ W.K.'.OXU ,                       ",
"                      $ . . . . . . . . . . . . . . . . . . . . K W.W.!.OX'.w                       ",
"                    , o . . . . . . . . . . . . . . . . . . . . 9 K.W.J.[.OXI                       ",
"                    % X . . . . . . . . . . . . . . . . . . . . % ( W.W.^.#XW.2                     ",
"                    $ . . . . . . . . . . . . . . . . . . . . . o / W.W.W.OX[.w                     ",
"                    + . . . . . . . . . . . . . . . . . . . . . o ~ W.K.K.].oXL                     ",
"                  , o     . . . . . . . . . . . . . . X . . . . X ! !.W.K.^.@XW                     ",
"                  * O     X . . . . . . . . . . . X     . . . . X ! K.W.K.Q.OX/ <                   ",
"                  * X       . . . . . . . . . X       X . . . . X ! W.K.W.W.XXW.<                   ",
"                  % .       . . . . . . . X           . . . . . o ~ W.K.K.D.].Q.3                   ",
"              , p * . .     X . . . . .               . . . . . @ / W.K.W.D._.Q.5 6 ,               ",
"          , s { +.i X . . . . . . . X               . . . . . . % ( W.W.W.D.(.( v +.[ 6             ",
"        4 b ;.f.5.t . . . . . . . . . X           . . . . . . . w D.K.W.W.K.!.~ b f.d.+.l <         ",
"      5 {       7.z + . . . . . . . . . . .     . . . . . . . . P W.W.K.W.W./ r { f.    5.x <       ",
"    < ]       d.7.4.z * o . . . . . . . . . . . . . . . . . . o / J.W.W.D.Y g ] 5.7.      p.z       ",
"    l i.    d.7.7.7.8.} y & O . . . . . . . . . . . . . . . . w J.W.) U r c +.7.7.7.7.      +.s     ",
"    ..f.  d.7.7.7.7.8.q.u.| y * o O . . . . . . . . . . . . o W ~ K s c } 0.0.7.7.7.7.7.7.  s.j     ",
"    _ a.7.7.7.7.7.7.7.7.0.t.e.2.[ a = $ @ O O O X X X o o # = g d ] 2.w.r.9.7.7.7.7.7.7.7.7.1.j     ",
"    a *.a.7.7.7.7.7.7.7.6.7.q.h.g.e.3.| ] z u y t t y l b { } 3.e.t.t.0.7.7.7.7.7.7.7.7.7.<.#.p     ",
"    <  .:.<.7.7.7.7.7.7.7.7.7.7.0.t.k.k.k.g.h.e.e.e.y.y.j.g.g.j.r.0.7.6.7.7.7.7.7.7.7.6.,.*.k       ",
"      4 o.&.,.a.d.d.7.7.7.7.7.7.7.7.7.8.q.r.t.h.g.g.h.h.r.q.0.7.7.7.7.7.7.7.7.7.7.6.<.>.*._ <       ",
"        4 k %.-.,.a.s.d.7.7.7.7.7.7.7.7.7.7.7.7.7.7.7.7.7.7.7.7.7.7.7.7.7.7.7.6.<.>.=.#.j <         ",
"          , p  .%.=.:.>.<.s.6.6.7.7.6.6.7.7.7.6.7.7.7.7.7.7.7.d.7.6.6.s.<.,.>.-.=.$.` 4 ,           ",
"            * 3 s _ @.*.&.-.:.:.>.,.,.,.<.<.6.<.<.<.6.<.<.<.,.,.1.>.:.-.=.=.%.X.k e N N 3           ",
"            ,   b.A 9 p _ X.#.*.&.=.=.=.=.=.=.=.=.=.=.=.=.=.=.=.=.&.%.@.o.k h K F N.C.D -           ",
"            * Z.G.m.D m : B 5 p j `  .X.O.@.#.$.$.$.$.#.@.O.X.` _ a p 1 , 2 ~.#X}.B.B.x.-           ",
"            , M.B.l.m - c.M.B   l.F C n 8 9 < s e w w 4 f R P A F z.S N N z.V / XX}.H.N.;           ",
"            1 Z.z.n * E H.M.B   H.G.m.l.S m r [.I.M.M.N T oX.XG.B.B.x.N H G.c.8 w D.`.A.N           ",
"            q H 0     F.H.l.q {.Y.B.x.S m , e XX XB.B.x.M T ].  B.B.b.m L.R.N.;     L Q V           ",
"            < 3       Q n.; 2 ).Y.m.D n ,     Y +XT.B.x.M = 7   E.B.N.n L U.Z.0       , 3           ",
"                      V q     P.A.l.; ,       , W.E.B.l.>     f `.R.M.n   r J 0                     ",
"                      ,       Q b.-             e ).Y.F ,       f P.A.n     1 ,                     ",
"                              V 0                 P I.N           e Q -                             ",
"                              ,                     Z q             , ,                             ",
"                                                    , ,                                             ",
"                                                                                                    ",
"                                                                                                    ",
"                                                                                                    "
};
