/* XPM */
static char *result[] = {
/* columns rows colors chars-per-pixel */
"50 50 202 2 ",
"   c #281A0D",
".  c #301F0D",
"X  c #34210D",
"o  c #3E2914",
"O  c #3B2D1F",
"+  c #3C332B",
"@  c #3E3835",
"#  c #56340D",
"$  c #5A370F",
"%  c #442D15",
"&  c #422E1A",
"*  c #4B3115",
"=  c #4B341B",
"-  c #47311D",
";  c #523313",
":  c #5D3A14",
">  c #51361B",
",  c #55391B",
"<  c #5D3D1C",
"1  c #593713",
"2  c #683E0F",
"3  c #643D12",
"4  c #633F17",
"5  c #463322",
"6  c #4B3621",
"7  c #4A392B",
"8  c #533B24",
"9  c #5A3F24",
"0  c #493E36",
"q  c #6D4414",
"w  c #63421D",
"e  c #684319",
"r  c #714614",
"t  c #734816",
"y  c #754A18",
"u  c #7C4E19",
"i  c #5B432C",
"p  c #5E4020",
"a  c #4A423E",
"s  c #5A4837",
"d  c #634322",
"f  c #63462B",
"g  c #6B4C2E",
"h  c #67482A",
"j  c #744D24",
"k  c #75512F",
"l  c #7C552E",
"z  c #6C4E31",
"x  c #624C39",
"c  c #704F31",
"v  c #68513D",
"b  c #755231",
"n  c #7A5633",
"m  c #7E5834",
"M  c #73583F",
"N  c #79593A",
"B  c #70553E",
"V  c #4A4848",
"C  c #554E4A",
"Z  c #5B514C",
"A  c #50504F",
"S  c #5D5D5E",
"D  c #5B5755",
"F  c #63564C",
"G  c #6B5A4C",
"H  c #695646",
"J  c #755B44",
"K  c #735E4B",
"L  c #645D5B",
"P  c #675C55",
"I  c #76604D",
"U  c #64615E",
"Y  c #6B635B",
"T  c #6F6057",
"R  c #74665C",
"E  c #75695D",
"W  c #7C6C5C",
"Q  c #7C6651",
"!  c #7F705F",
"~  c #665E60",
"^  c #636363",
"/  c #6A6565",
"(  c #6C6965",
")  c #6D6C6A",
"_  c #756E65",
"`  c #7A6E61",
"'  c #726D6A",
"]  c #7F7162",
"[  c #73716E",
"{  c #7B736B",
"}  c #727272",
"|  c #797673",
" . c #7B7975",
".. c #7C7B7A",
"X. c #777877",
"o. c #88551C",
"O. c #955E1E",
"+. c #985E1B",
"@. c #A3661E",
"#. c #AB6B1F",
"$. c #B16D1A",
"%. c #875926",
"&. c #935E21",
"*. c #855C34",
"=. c #825F3D",
"-. c #8E602F",
";. c #9A6223",
":. c #94632C",
">. c #9B662B",
",. c #966023",
"<. c #8D6135",
"1. c #8D633A",
"2. c #936434",
"3. c #9D6A35",
"4. c #926639",
"5. c #986A3A",
"6. c #A26723",
"7. c #AA6B22",
"8. c #A36B2D",
"9. c #A76B25",
"0. c #B46F20",
"q. c #AC702C",
"w. c #B47324",
"e. c #B97524",
"r. c #B3742C",
"t. c #BB792F",
"y. c #B9772B",
"u. c #A46D33",
"i. c #A96F30",
"p. c #A67034",
"a. c #AB7132",
"s. c #AC763B",
"d. c #B77731",
"f. c #BC7A30",
"g. c #B27939",
"h. c #C67F2F",
"j. c #826345",
"k. c #926C46",
"l. c #9E7142",
"z. c #83725E",
"x. c #A67440",
"c. c #B07B42",
"v. c #827361",
"b. c #8A7762",
"n. c #86796B",
"m. c #867D73",
"M. c #897F73",
"N. c #827E7B",
"B. c #8D8275",
"V. c #84817D",
"C. c #8B847C",
"Z. c #948676",
"A. c #91877C",
"S. c #93897E",
"D. c #9B8D7C",
"F. c #988877",
"G. c #A3927F",
"H. c #7F8080",
"J. c #848382",
"K. c #8A8682",
"L. c #8D8A86",
"P. c #8D8B89",
"I. c #878887",
"U. c #938D86",
"Y. c #9A8E81",
"T. c #928E89",
"R. c #9B9185",
"E. c #95918C",
"W. c #9B938A",
"Q. c #9C9B99",
"!. c #A29484",
"~. c #AB9A87",
"^. c #A2978B",
"/. c #A4998D",
"(. c #AA9C8C",
"). c #B09F8C",
"_. c #A49C94",
"`. c #A99E91",
"'. c #AFA08E",
"]. c #B2A18E",
"[. c #ADA193",
"{. c #AAA39B",
"}. c #B3A493",
"|. c #BBAA96",
" X c #B4A99B",
".X c #BDAD9A",
"XX c #B6A695",
"oX c #ACABAB",
"OX c #A8A4A0",
"+X c #BEBEBD",
"@X c #B1AAA2",
"#X c #C4B39E",
"$X c #C1BFBD",
"%X c #C2C1BF",
"&X c #C5C3C2",
"*X c #CAC9C9",
"=X c #CCC8C3",
"-X c #D2CECB",
";X c #D1D0CE",
":X c #D2D2D2",
">X c #E2E2E2",
",X c None",
/* pixels */
",X,X,X,X,X,X,X,X,X,X,X,X,X,X,X,X,X,X,X,X,X,X,X,X,X,X,X:X,X,X,X,X,X,X,X,X,X,X,X,X,X,X,X,X,X,X,X,X,X,X",
",X,X,X,X,X,X,X,X,X,X,X,X,X,X,X,X,X,X,X,X,XB.].^.Y.L.V.....oX,X,X,X,X,X,X,X,X,X,X,X,X,X,X,X,X,X,X,X,X",
",X,X,X,X,X,X,X,X,X,X,X,X,X,X,X,X,X,XN.C.H.{ .X}.(.W.U.T.S n.]._.,X,X,X,X,X,X,X,X,X,X,X,X,X,X,X,X,X,X",
",X,X,X,X,X,X,X,X,X,X,X,X,X,X,X,X!./.W.T.L.| ].[./.W.L.I.( XX}.^.C.V.,X,X,X,X,X,X,X,X,X,X,X,X,X,X,X,X",
",X,X,X,X,X,X,X,X,X,X,X,X,X,X,X]..X/.^.U.P. .~.[.^.W.U.J.M.|.(.W.T.P.^ ,X,X,X,X,X,X,X,X,X,X,X,X,X,X,X",
",X,X,X,X,X,X,X,X,X,X,X,X,X,X} B.|.[./.R.T...R.}.^.W.T...D.XX/.W.P.J.A ) Q.,X,X,X,X,X,X,X,X,X,X,X,X,X",
",X,X,X,X,X,X,X,X,X,X,X,X,XC.E...C.|./.W.U.V.S.XX/.W.T. .~.[.^.U.T.( ..E.K.,X,X,X,X,X,X,X,X,X,X,X,X,X",
",X,X,X,X,X,X,X,X,X,X,X,X!./.E.T...S.}.W.W.E.m.^.Y.U.K.[ }.[.W.T.}  .T.U._.!.,X,X,X,X,X,X,X,X,X,X,X,X",
",X,X,X,X,X,X,X,X,X,X,X,X|.}.^.R.T.X.Y. XL.G = p w 5 9 4 s m.E.N.| T.W.^.`.#XB.,X,X,X,X,X,X,X,X,X,X,X",
",X,X,X,X,X,X,X,X,X,X,X/ { (.XX/.U.E.( H e # * e 2 % 4 q X = s L T.U.^.}.).m.} E.,X,X,X,X,X,X,X,X,X,X",
",X,X,X,X,X,X,X,X,X,XV.E.J.| S.(. X{ . * q : = e 3 % < r % < t * ^ }.}.Y. .J.T.V.,X,X,X,X,X,X,X,X,X,X",
",X,X,X,X,X,X,X,X,X,XR.W.E.U.N.N.n.3 X , q $ - e y d :.7.p <.y.r i n.M...L.T.W.^._.,X,X,X,X,X,X,X,X,X",
",X,X,X,X,X,X,X,X,X].|.`.W.W.E.I.8 2 X , q 1 d >.7.b 3.w.w <.f.y k n ..W.W.^.`.|.(.,X,X,X,X,X,X,X,X,X",
",X,X,X,X,X,X,X,X,X{ !.].}.[.[.` 1 : . > y u *.a.9.b 3.w.w *.f.t z 8.z._.(.(.^.!.{ ,X,X,X,X,X,X,X,X,X",
",X,X,X,X,X,X,X,X,X[ ..V.B.S.R.s : ;   p q.;.n i.7.k 3.e.< m f.t z 8.4.m.V.N.N.V...oX,X,X,X,X,X,X,X,X",
",X,X,X,X,X,X,X,XOXU.W.U.L.K.X.= w ;   <.r.O.n a.7.k 3.e.= *.f.t z u.7. .U.U.U.W.U.{.,X,X,X,X,X,X,X,X",
",X,X,X,X,X,X,X,X[.[.`.`./.`.C.% 4 q - 4.r.&.n i.7.k 3.w.p <.f.t g p.7.B.[./.[.[.'.{.,X,X,X,X,X,X,X,X",
",X,X,X,X,X,X,X,X XD.R.!.!.(._ % < o., <.r.&.*.i.@.k 3.w.d 1.f.t g p.@.R !.D.G.R.F. X,X,X,X,X,X,X,X,X",
",X,X,X,X,X,X,X,X,X] Z.Z.Z.!.T o 7 H 6 <.y.&.F u.#.k 3.0.d <.t.t g u.q.!.XX].'.XXD.$X,X,X,X,X,X,X,X,X",
",X,X,X,X,X,X,X,X,X}..X|.|.#XY.O h J 0 *.a.O.C 1.7.k 3.0.e *.d.t g 8.8.!.[.[.[.[.^.-X,X,X,X,X,X,X,X,X",
",X,X,X,X,X,X,X,X,XY./././.`.A.@ D ) ~ ~ / ~ L T Y F 2.e.d *.d.r h 3.>.D.W.W.R.W.A.,X,X,X,X,X,X,X,X,X",
",X,X,X,X,X,X,X,X&XC.W.U.T.W.m.+ N J a N 1.*.C j.*.z 3.w.e N 5.r f u.;.L.P.P.P.E.J.,X,X,X,X,X,X,X,X,X",
",X,X,X,X,X,X,X,X+XV.T.P.L.E.| = j.F 5 5.y.+.Z l.$.l 3.e.z V 0 f g p.O.D } ' ) ) D ,X,X,X,X,X,X,X,X,X",
",X,X,X,X,X,X,X,X*XU ' ) / ) V = j.:.= *.r.&.f >.7.k 3.r.v x f f s p.u E XX~.~.(.G.,X,X,X,X,X,X,X,X,X",
",X,X,X,X,X,X,X,X-XG.].~.~.].n.& 3.e.> 4.r.,.8 u.7.k p.-.0 4.7.> s a.u  ..X}.}.XX(.,X,X,X,X,X,X,X,X,X",
",X,X,X,X,X,X,X,X=X/.}.[.}.|.D.6 l.q.8 4.g.%.i s.8.b x.<.+ E W + s c.u ( `.W.W.^.Y.,X,X,X,X,X,X,X,X,X",
",X,X,X,X,X,X,X,X&XS.^.R.R._. .6 x.8.6 k.g.:.=.s.8.N 3.f.6 H k.+ i c.o.( W.P.U.E.C.,X,X,X,X,X,X,X,X,X",
",X,X,X,X,X,X,X,X&XC.E.E.T.W.| = u.;.& 4.r.O.n a.#.b 3.e.o *.h.3 8 a.#.U I.J.J.J...,X,X,X,X,X,X,X,X,X",
",X,X,X,X,X,X,X,X&X) ..X.X...S , p.@.o 4.q.&.m a.#.k 3.e., <.t.t f i.7.F n.{ _ _ U ,X,X,X,X,X,X,X,X,X",
",X,X,X,X,X,X,X,X;Xn.A.B.m.B.P = Q H & 4.r.O.M a.9.b 5.w.w 1.t.t g u.r.(..X|.|.#X].,X,X,X,X,X,X,X,X,X",
",X,X,X,X,X,X,X,X=X]..X.X|.#XR.5 *.H 0 :.r.+.Z 4.$.k 3.7.d <.t.t z u.r.R./././.`.R.,X,X,X,X,X,X,X,X,X",
",X,X,X,X,X,X,X,X&XY./.^.^./.B.0 R R L T W K L I j.H 3.6.p <.t.t h u.r.A.W.W.W.W.C.,X,X,X,X,X,X,X,X,X",
",X,X,X,X,X,X,X,X&XC.E.U.U.W.m.@ H T Z G I H F J J H >.;.9 <.h.r 9 p.r.K.E.E.P.E.J.,X,X,X,X,X,X,X,X,X",
",X,X,X,X,X,X,X,X&XN.L.I.I.P.[ - 4.H 7 -.r.+.Z k.$.k u.&.8 2.d.2 7 a.&.D ~ ~ ^ S ^ ,X,X,X,X,X,X,X,X,X",
",X,X,X,X,X,X,X,X*XU { _ ( _ C = K J > =.q.&.M 8.7.c u.>.= 2.h.2 9 s.%.v.F.Z.F.M.A.,X,X,X,X,X,X,X,X,X",
",X,X,X,X,X,X,X,X*X~.|.XX]..XS.= 8.0., *.q.&.k 8.7.c u.q.p =.f.2 f a.&./.#X.X.X#X(.,X,X,X,X,X,X,X,X,X",
",X,X,X,X,X,X,X,X%XW.[.`.(.}.S.= 2.0.> b a.&.f u.7.k 2.6.d c d.y g u.y.Y.^.^.W./.Y.,X,X,X,X,X,X,X,X,X",
",X,X,X,X,X,X,X,X%XS.W.R.W.W.B.& -.e.- f a.&.f &.0.*.4.&.d 9 d.u z u.q.K.E.R.R.W.K.,X,X,X,X,X,X,X,X,X",
",X,X,X,X,X,X,X,X%XS.E.P.L.E.X.. j 0.  8 9.1 k , u j %.o.4 6 &.2 f j 6.N.P.I.P.P.N.,X,X,X,X,X,X,X,X,X",
",X,X,X,X,X,X,X,X%X/ X.} X.X.[ R v.b.T ` b.` v.v.R z.v.v.v.` v.` ` z.b.' [ [ ' | / :X,X,X,X,X,X,X,X,X",
",X,X,X,X,X,X,X,X+X{ L.C.C.C.U.[._._._._._._._._._._._._._._._._._._._.W.U.W.W.W.m.+X,X,X,X,X,X,X,X,X",
",X,X,X,X,X,X,X,XoX) ..X.X...X.} } } } X.} X.X.X.X.| } X.X.} X.X.X.} | X.| X.X...^ oX,X,X,X,X,X,X,X,X",
",X,X,X,X,X,X>XC.C.m.B.m.m.m.B.m.M.M.M.M.M.M.M.M.m.m.m.m.m.m.M.M.m.m.m.M.m.m.M.M.m.C.C.,X,X,X,X,X,X,X",
",X,X,X,X,X,X:XB.[.[.[.[.`.[.[.[.[.[.[.[.[.[.`.[.[.`.[.[.[.[.`.`.[.`.[.[.[.`.`.`.[.}.A.,X,X,X,X,X,X,X",
",X,X,X,X,X,X:X .E.U.U.U.U.U.U.U.U.U.U.U.U.U.U.U.T.P.T.U.P.U.U.T.T.U.U.U.U.U.U.U.U.E. .,X,X,X,X,X,X,X",
",X,X,X,X,X,X:X} L.J.I.I.J.J.K.J.I.J.J.I.J.K.J.I.K.K.K.J.I.I.J.J.K.K.J.J.I.J.J.I.J.P.[ ,X,X,X,X,X,X,X",
",X,X,X,X,X,X:X) J.H.H.H.J.H.J.H.H.H.H.H.H.J.H.H.J.H.H.H.H.H.H.H.J.H.H.H.J.H.H.H.V.J.) ,X,X,X,X,X,X,X",
",X,X,X,X,X,X;X} I.J.J.J.J.J.J.J.J.I.J.J.J.J.J.J.J.J.J.J.I.I.H.H.J.J.J.J.J.J.J.J.I.I.} ,X,X,X,X,X,X,X",
",X,X,X,X,X,X:X^ } } } ) } } ) } } ) ) } } ) } } ) } } } } ) } ) } } } } } } } ) } } ^ ,X,X,X,X,X,X,X",
",X,X,X,X,X,X,X:X*X*X*X*X*X*X*X*X*X*X*X*X*X*X*X*X*X*X*X&X*X*X*X*X*X*X,X,X,X,X,X,X,X,X,X,X,X,X,X,X,X,X"
};
