/* XPM */
static char *_4c6b4ea46414f7dfd9f5c35176d4c40RHKxYVOS7TWqGrPO[] = {
/* columns rows colors chars-per-pixel */
"50 50 142 2 ",
"   c None",
".  c #040404",
"X  c #090707",
"o  c #0D0B0A",
"O  c #110F0D",
"+  c #13110F",
"@  c #161311",
"#  c #1A1614",
"$  c #1D1916",
"%  c #1E1B19",
"&  c #221D1A",
"*  c #26211D",
"=  c #29231F",
"-  c #262321",
";  c #2C2521",
":  c #2E2924",
">  c #322B26",
",  c #352D28",
"<  c #382F2A",
"1  c #37302B",
"2  c #3C332D",
"3  c #3E3631",
"4  c #3F3832",
"5  c #40362F",
"6  c #413730",
"7  c #443A33",
"8  c #4A3E37",
"9  c #473E38",
"0  c #4B3F38",
"q  c #4D423B",
"w  c #51453E",
"e  c #524740",
"r  c #554A42",
"t  c #5A4D45",
"y  c #5C5047",
"u  c #5E5149",
"i  c #61574D",
"p  c #62554C",
"a  c #64564E",
"s  c #63554D",
"d  c #63584E",
"f  c #66584F",
"g  c #665850",
"h  c #665950",
"j  c #675950",
"k  c #675951",
"l  c #655A50",
"z  c #665A50",
"x  c #675C51",
"c  c #675951",
"v  c #695B52",
"b  c #695B53",
"n  c #685D52",
"m  c #695D53",
"M  c #6A5C53",
"N  c #6B5C53",
"B  c #6A5E53",
"V  c #6B5D54",
"C  c #6B5D55",
"Z  c #6A5E54",
"A  c #6C5D54",
"S  c #6C5D55",
"D  c #6C5E54",
"F  c #6C5F54",
"G  c #6D5E55",
"H  c #6C5F55",
"J  c #6D5F55",
"K  c #6D5F56",
"L  c #6E5F56",
"P  c #6E5F57",
"I  c #6B5D54",
"U  c #6E6056",
"Y  c #6E6057",
"T  c #6F6057",
"R  c #6F6157",
"E  c #6F6256",
"W  c #6E6257",
"Q  c #6F6257",
"!  c #6F6057",
"~  c #6F6158",
"^  c #6F6158",
"/  c #706057",
"(  c #706157",
")  c #706357",
"_  c #706157",
"`  c #706158",
"'  c #716258",
"]  c #716259",
"[  c #716359",
"{  c #726359",
"}  c #72635A",
"|  c #726459",
" . c #72645A",
".. c #73655A",
"X. c #73655B",
"o. c #73665A",
"O. c #73675B",
"+. c #74655B",
"@. c #74665B",
"#. c #75665C",
"$. c #75675C",
"%. c #75675D",
"&. c #76675C",
"*. c #76675D",
"=. c #716359",
"-. c #76685D",
";. c #77685D",
":. c #76695D",
">. c #77685E",
",. c #77695E",
"<. c #77685D",
"1. c #78695E",
"2. c #786A5F",
"3. c #786B5F",
"4. c #796B5F",
"5. c #796C5F",
"6. c #786A5F",
"7. c #796B60",
"8. c #7A6B60",
"9. c #7A6C60",
"0. c #7A6C61",
"q. c #7B6C61",
"w. c #7A6D61",
"e. c #7B6D61",
"r. c #7B6E61",
"t. c #7C6E61",
"y. c #7C6D62",
"u. c #7C6E62",
"i. c #7D6E62",
"p. c #7D6F62",
"a. c #7D6F63",
"s. c #7E6F63",
"d. c #7B6D61",
"f. c #7E7063",
"g. c #7E7064",
"h. c #7F7164",
"j. c #7F7164",
"k. c #807265",
"l. c #817365",
"z. c #817366",
"x. c #827366",
"c. c #807265",
/* pixels */
"                  . . @ # + + # # O O @ # # X . . .               o o + # % : : : : ; : - +         ",
"                . # q d l u t e w e q q w r w e q 2 - - :   . # , w d l l l V p u u u u p r 4 #     ",
"@ , 4 6 : o . X + t 0.;.;.;.$.| ) O.7.w.8.1.1.5.:.O.Z 7 O o > l p.p.p.7.5.$.| } } ~ W W } / P r *   ",
", M P ~ l 4 @ # % U 7.~ ~ O.V w q w e t p F / / W W ~ u # 4 f.x.8.} K K ~ U ~ U U ~ ~ ~ K K } K 0 # ",
": v } 1.7.} q % o q } U O.x.;.w q 9 8 8 8 w F / ~ ~ Z 3 1 3.h.0.} K / } / / / / ~ U a r p K ~ } p - ",
"% p 0.k.h.h.0.q o * b ~ ;.h.f.r 9 9 8 q q t F U ~ l 4 , O.h.;.U / K / P P K / / ~ V w 8 w K U ~ p & ",
"O e k.p.0.g.h.~ , @ q ~ ;.h.k.p 8 q q y ) o.( ( K 4 1 ~ p.| U ~ K / / P / P / / K t 0 8 q a / U 4 # ",
"X 4 h.l e r y q 9 # 7 U | f.x.| w w U t.l.&.( ( u - V a.| U ~ U A K K / P / / N t q 8 8 8 p / 0 & q ",
"  1 U q 8 8 7 8 = & a / } 1.k.h.5.p.k.k.8.} / ' q > 7.h.~ P K y w w r s N A s e 0 8 8 8 0 u r % q ~ ",
"  * q 0 0 0 0 , O w / / U +.f.k.k.k.h.;.} / / / r : ~ h.| l r 0 8 8 8 0 w w 0 8 8 8 8 8 0 r - 3 ~ ~ ",
"  & 7 q 0 0 5 @ , v / / U / | ;.7.1.} / / U / / l ; r ~ u q 0 0 8 8 8 8 8 8 8 8 8 8 8 8 q < & a ~ ~ ",
"  $ , 7 6 < # = 0 r a K / U / / U ~ U / U / / / P 7 , e 0 8 8 8 8 8 8 8 8 8 8 8 8 8 0 0 7 # 4 P K P ",
"    % # O O @ 6 0 0 q t j / / / } / U } / / N a a t & > 0 8 8 8 8 8 8 8 8 8 8 8 8 8 8 8 6 @ e } ~ K ",
"  o $ ; # o * 8 0 0 0 8 q p N / K U K K G u w 8 0 0 < & 6 0 0 8 8 8 8 8 8 8 8 8 8 8 8 0 4 o , V K } ",
"  @ q V q O & 7 8 8 0 8 8 0 w p N K / v r 0 8 0 0 8 8 & - 0 8 8 8 8 8 6 < < , = & ; , , & @ # 0 } K ",
"X 1 K } K , # 6 0 8 8 8 8 8 0 0 w t t q 8 8 8 8 8 8 0 > O 6 8 8 0 6 ; & & > , : : ; ; ; : e 7 & p / ",
"@ t } ;.p.M ; & 7 8 8 8 8 8 8 8 8 8 8 8 8 8 8 8 8 8 0 < o , 0 8 : $ - 0 p g C C C K C v V / v ; , P ",
"& l U 1.k.| u & & 8 8 8 8 8 8 8 8 8 8 8 8 8 8 8 8 8 0 6 o ; 7 & > q v } / $.7.$./ K K / } U P r $ 0 ",
"* l / 5.k.M p w # > 8 8 8 8 8 8 8 8 8 8 0 8 8 8 0 8 8 7 @ $ & 2 g } K } / p.k.h.p.| / / U / / K , & ",
"* V U ;.x.M q j q # < 8 8 8 8 8 8 8 8 8 8 8 8 8 8 8 8 8 = O 6 F } K / K } a.k.k.k.1.} U / / K } q $ ",
"& C K 7.k.F 8 y K 4 # 6 8 8 8 8 8 8 8 8 8 8 8 8 0 0 0 1 @ < K } K / / / +.f.k.k.k.p.} K / P K } u # ",
"& C K $.l.U 8 w F v > & 8 8 8 8 8 8 8 0 8 8 8 8 8 q 6 # @ t / / K } K ~ $.k.k.k.k.h.$./ P / / / C - ",
"& l P $.k.M 8 0 p } p & > 8 8 8 8 8 8 8 8 8 8 8 7 < # # : v / / U U / U 1.k.k.k.k.k.$.K } / / K / 0 ",
"o q ~ } p.s 8 8 u / / r & , 8 8 8 8 8 8 8 8 8 5 & O @ @ ; v / K U } U / 0.k.k.k.k.k.$.} K K K } / k ",
"  1 P } $.v r e a } } K e & , 0 0 0 0 0 0 7 ; & ; 6 r , % l } K K / / } p.h.k.k.k.x.1.} K K / U P } ",
"  % p } P ~ K K } 7.p.$.~ 0 & , 6 7 1 3 ; # ; q q 0 w 9 % a } / / K K } 7.p.p.0.0.1.+.U / } U / P v ",
"  o 7 V K K / / +.k.k.k.$.K 0 - & % @ @ o , | K 0 8 8 0 ; p / K K } K } } } / } } U / / / / / / K r ",
"  o < r K } U / +.a.k.k.p.| ~ l t , $ $ & l k.v 0 0 0 r : y } / / / K U K U U K v f a a f f a a r q ",
"  + 5 0 t N / / } p.k.k.k.;.K } ~ r # @ 9 7.k.p 8 0 r l , e } P / K / / / K K y q q 0 0 0 0 0 0 0 0 ",
"  O 5 0 8 e v / K } $.7.0.| / P P V 1 o q 7.k.v w l $.} 3 1 l K / / / U / / p 0 8 8 8 8 8 8 0 8 8 0 ",
"  # 7 0 8 8 w t v / / K } K P ~ ~ ~ u $ 7 7.k.p.K p.p.| e & 8 t F / K / U a w 8 8 8 8 8 8 8 8 8 7 > ",
"o , 0 8 8 0 0 0 w y v } U / P V K P ~ 4 : K 7.k.p.k.h.} g = ; 0 w a F K s w 8 8 8 8 8 8 8 8 8 8 & @ ",
"+ 5 0 8 8 8 8 8 8 8 w a v p r r t N ' t & p +.1.l.l.p./ K 8 $ 2 0 0 w t q 8 8 8 8 8 8 0 8 8 8 , @ , ",
"o , 0 8 8 8 8 8 8 8 8 q w 8 8 8 8 t / N = q | / 1.f.1./ a w ; $ 5 8 8 8 0 8 8 8 8 8 8 8 8 8 8 = & 8 ",
"  & 8 8 8 8 8 8 8 8 8 8 8 8 8 8 8 q j / > 5 / / U } } V t 8 8 & @ 2 8 8 8 8 8 8 8 8 8 8 8 8 8 & # 7 ",
"  + 6 8 8 8 8 8 8 8 8 8 8 8 8 8 8 8 t s * ; t a K U U y 0 8 8 > X O > 7 0 0 8 8 8 8 8 8 0 8 8 & X - ",
"  o 2 8 8 8 8 8 8 8 8 8 8 8 8 8 8 8 q 8 & & 8 0 w u t q 8 8 0 5 + $ O $ ; 2 7 8 8 8 8 8 8 0 8 # o @ ",
"  . # ; > 7 8 8 8 0 8 8 8 8 8 8 8 8 8 7 O = 8 8 8 8 8 8 8 8 0 5 @ @ $ $ @ @ # & ; > < < 5 5 > o # % ",
"  . ; e 1 & 7 8 8 8 8 8 8 8 8 8 8 8 8 < X = 8 8 8 8 8 8 8 8 0 1 o = 5 7 7 5 > = & & & # # & & & # - ",
"  O t } v ; = 8 8 8 8 8 8 8 8 8 8 8 8 = X & 8 8 8 8 8 8 8 8 0 , $ 7 8 0 0 0 0 8 8 8 5 5 5 5 6 5 $ & ",
"  @ s / j 8 @ > 8 8 8 8 8 8 8 8 8 0 5 @ O o < 8 8 8 8 8 0 0 7 & , 0 w w 8 8 8 8 8 8 8 8 0 q 8 8 > O ",
"o = t s 0 8 & & 8 8 8 8 8 8 8 0 0 5 # O = @ O < 8 0 0 8 8 5 * = 7 w f l t w w w w w t s N N N w , O ",
"+ 6 q 0 8 8 > O 1 0 0 8 8 0 8 8 , & O > 8 6 & + > , > > & & ; 7 r N p.p.1.5.1.1.k.k.k.k.l.l.x.| = O ",
"O 7 8 8 8 8 > X & 7 8 7 7 5 ; & & = 5 0 8 8 5 O @ O # = , 5 q y / k.k.k.k.x.k.k.l.l.k.k.k.5.| 7 & 2 ",
"@ 7 0 0 8 6 & O O @ & & & $ & , 5 8 0 w q 8 7 # @ > 7 0 8 r a +.k.l.p.l.p.7.1.1.$.$.| } ' F w > 8 8 ",
"O = 5 2 = # & > > > ; > , 5 6 8 0 w w j s 0 5 O > 0 8 0 r K 1.l.l.p.+./ } K / K / K } / / w < 8 8 8 ",
"  X O O o ; 8 8 8 8 0 0 0 0 w w t j / ' N w = = 8 0 0 w U f.k.k.x.0.} / } K / / P / } p 1 + 1 0 8 8 ",
"      O = 0 t s s y y y u s a N / / / / / 0 # 5 8 0 w / h.k.k.h.1./ U / P / P K K } t & # > ; 6 8 8 ",
"    X & 0 a / / / } +.1.+./ / U } U / U K > = 8 8 8 r } p.f.p.| / U U / K v v K F 8 @ & 6 8 < = ; , ",
"    + 6 q w p / 1.5.f.k.f.| U / U U K } a % < 0 8 8 r M } } / K U } U K u w w r 7 o & 7 0 8 0 6 > $ "
};
