/* XPM */
static char *_82927e937344b32dcba5f4e021de3f2JeD1gpan4SE2z4OG[] = {
/* columns rows colors chars-per-pixel */
"50 50 183 2 ",
"   c None",
".  c #020202",
"X  c #0B0B0B",
"o  c #090A09",
"O  c #18160F",
"+  c #000E16",
"@  c #141413",
"#  c #1C1B1B",
"$  c #181718",
"%  c #130C06",
"&  c #231C14",
"*  c #201F1F",
"=  c #24180D",
"-  c #32271B",
";  c #3F311F",
":  c #011927",
">  c #211F20",
",  c #002937",
"<  c #1B2C38",
"1  c #242323",
"2  c #282727",
"3  c #2C2B2B",
"4  c #292827",
"5  c #302F2F",
"6  c #322921",
"7  c #3B3327",
"8  c #2C2E31",
"9  c #283D3D",
"0  c #343333",
"q  c #3B3B3B",
"w  c #323639",
"e  c #4A321C",
"r  c #543C23",
"t  c #463A24",
"y  c #52493D",
"u  c #5B4C3F",
"i  c #5F4735",
"p  c #58452E",
"a  c #64442B",
"s  c #674A2E",
"d  c #6A4B2C",
"f  c #694D31",
"g  c #7E5733",
"h  c #002E45",
"j  c #142C42",
"k  c #003343",
"l  c #033A56",
"z  c #403F40",
"x  c #094B4F",
"c  c #184B4F",
"v  c #004E5B",
"b  c #32474E",
"n  c #004467",
"m  c #005561",
"M  c #01577C",
"N  c #0A737B",
"B  c #3E6470",
"V  c #444444",
"C  c #4B4B4B",
"Z  c #494847",
"A  c #504F4F",
"S  c #5B514B",
"D  c #535353",
"F  c #595959",
"G  c #7B5B40",
"H  c #6F5F54",
"J  c #6B5D45",
"K  c #7A6A4E",
"L  c #7A6C52",
"P  c #4E6261",
"I  c #616161",
"U  c #6C6C6B",
"Y  c #777777",
"T  c #865E37",
"R  c #8D6239",
"E  c #8E6F3B",
"W  c #966B3E",
"Q  c #8D6E4E",
"!  c #9D7341",
"~  c #9D7949",
"^  c #916B5A",
"/  c #8E7B57",
"(  c #A67648",
")  c #B37F53",
"_  c #BB874F",
"`  c #AC8456",
"'  c #AA8A66",
"]  c #B18D65",
"[  c #AF926E",
"{  c #B59067",
"}  c #B99A7A",
"|  c #D18B4B",
" . c #DD934F",
".. c #C38F54",
"X. c #CB8749",
"o. c #E7944E",
"O. c #EF9F56",
"+. c #F09F57",
"@. c #EBAE58",
"#. c #F4A658",
"$. c #F6B05C",
"%. c #C99964",
"&. c #C1A97E",
"*. c #D8B37B",
"=. c #F0AC68",
"-. c #FAB667",
";. c #EFB979",
":. c #F3B073",
">. c #FFBB72",
",. c #ECA769",
"<. c #FBC46B",
"1. c #FECA6C",
"2. c #FFCE70",
"3. c #FFD472",
"4. c #005484",
"5. c #00549A",
"6. c #006E93",
"7. c #0069CA",
"8. c #0070CD",
"9. c #0075D1",
"0. c #007DD2",
"q. c #008B97",
"w. c #0082A7",
"e. c #0891A0",
"r. c #008FB2",
"t. c #0098B6",
"y. c #03A6BD",
"u. c #05A9BA",
"i. c #00B6BF",
"p. c #11B3BE",
"a. c #0095C9",
"s. c #0083D5",
"d. c #008BD5",
"f. c #008CDB",
"g. c #0091D6",
"h. c #0093D9",
"j. c #00B7C5",
"k. c #009BE3",
"l. c #00A5E4",
"z. c #00AEE9",
"x. c #00AAE6",
"c. c #00B6EB",
"v. c #00BAEC",
"b. c #00C2EE",
"n. c #00CBEA",
"m. c #00C5F0",
"M. c #00CCF2",
"N. c #01D4F4",
"B. c #02D9F5",
"V. c #00DFF8",
"C. c #08E3F9",
"Z. c #0DF7FF",
"A. c #14FFFF",
"S. c #97938E",
"D. c #959595",
"F. c #848586",
"G. c #B8A88C",
"H. c #A5A4A4",
"J. c #B1ACA7",
"K. c #B8B7B6",
"L. c #DEBE87",
"P. c #E3BE87",
"I. c #EFC08A",
"U. c #FAC587",
"Y. c #FFD68F",
"T. c #E8CA97",
"R. c #FFCB92",
"E. c #FCD39B",
"W. c #FDD899",
"Q. c #C5C0BD",
"!. c #D0CABD",
"~. c #FBCDA5",
"^. c #FBD7A9",
"/. c #E0C6B0",
"(. c #F6DDB3",
"). c #EBCBAB",
"_. c #FFE4AB",
"`. c #FFF2BE",
"'. c #BFC0C4",
"]. c #DAD0C3",
"[. c #D8D7D6",
"{. c #F8FAFD",
"}. c #E9E8E7",
/* pixels */
"                                                                                                    ",
"                                                                                                    ",
"                                                                                                    ",
"                                                                                                    ",
"                                        .       .                                                   ",
"                                        @     . 0                                                   ",
"                                      o V .   $ V 1                                                 ",
"                                X $   o Z q   2 D Z .   .                                           ",
"                                5 w   1 D V . 2 Z C 3   5                                           ",
"                                5 U $ > D 0 X 0 V D V . q $                                         ",
"                              . 0 I # * A 0 @ 0 q A w . q V     .                                   ",
"                            . . 0 D 0 1 q w > 5 0 V 3 @ V D . 4 q                                   ",
"                            V $ 4 Z 0 1 3 q 2 3 3 q 2 1 0 V . C 3                                   ",
"                          . 5 2 * 0 5 > 2 3 2 2 3 3 2 4 3 0 2 F 4                                   ",
"                          . * > * 1 1 1 2 1 1 2 2 4 4 4 4 3 3 V 3                                   ",
"                          . $ # # * * * > > 1 1 1 1 1 1 2 1 1 q 2                                   ",
"                          o X X o . . + : h n 4.6.w.r.t.a.u.u.p.x                                   ",
"                          q.a.g.g.g.h.h.0.f.k.l.m.M.N.V.C.C.C.A.N                                   ",
"                          i.c.0.0.d.h.h.9.0.f.l.c.v.m.M.n.B.B.A.N                                   ",
"                          i.z.7.0.d.d.h.9.0.f.l.v.m.m.M.N.N.N.Z.6.                                  ",
"                          j.v.8.d.g.g.g.7.9.0.f.h.l.x.v.b.N.N.C.e.                                  ",
"                          u.n.h.g.k.M 7 j 5.4.n l k , , , k c r o                                   ",
"                          m v : & % d W ! ..f G I.^.~.^.^ T ( g                                     ",
"                             .#.#.X.e r T T T ..W J ^.Q T R f y                                     ",
"                            e | #.#.@.!.'.Y - a T K T.a S 0 S.y                                     ",
"                          { R.*.o.$.1.].{.{.D.. H._.R./.{.}.K..                                     ",
"                          ' W.I.;.$.2.<.[ Q.[.J.' E._.G.K.K.}                                       ",
"                          I.W.' 2.$.1.1.>.-.=.:.P.%.&._.~.~.).                                      ",
"                          O I.T.Q -.2.1.1.>.>.%.1 t 1 L `.(.G.                                      ",
"                            7 /   ! 3.<.2.~ @ 2 w w V D 2 7 y                                       ",
"                                    E t X $ > 2 5 0 q D F F .                                       ",
"                                      @ 3 $ # > 2 8 q C A X     $ o                                 ",
"                                        . X # $ 1 4 q 2 .     $ I                                   ",
"                                            2 X X @ X       X D.U                                   ",
"                                          4 2 3 # 4 0     # Y D.D                                   ",
"                                          V 4 $ > @ 3 $   F H.Y                                     ",
"                                        > t 2 5 $ $ $ 8 p S.F.0                                     ",
"                                        8 5 > 1 3 0 w i ` %.                                        ",
"                                        P.R.` l M H B P ,.6                                         ",
"                                        :.U.( < h S b 9 =                                           ",
"                                        - a % . . . . .                                             ",
"                                            . . . .                                                 ",
"                                            . . . . .                                               ",
"                                            . . 3 q q 0                                             ",
"                                              o X X o                                               ",
"                                                                                                    ",
"                                                                                                    ",
"                                                                                                    ",
"                                                                                                    ",
"                                                                                                    "
};
